<?xml version="1.0" encoding="utf-8" standalone="no"?>
<!DOCTYPE svg PUBLIC "-//W3C//DTD SVG 1.1//EN"
  "http://www.w3.org/Graphics/SVG/1.1/DTD/svg11.dtd">
<svg xmlns:xlink="http://www.w3.org/1999/xlink" width="1072.96pt" height="708.415pt" viewBox="0 0 1072.96 708.415" xmlns="http://www.w3.org/2000/svg" version="1.1">
 <metadata>
  <rdf:RDF xmlns:dc="http://purl.org/dc/elements/1.1/" xmlns:cc="http://creativecommons.org/ns#" xmlns:rdf="http://www.w3.org/1999/02/22-rdf-syntax-ns#">
   <cc:Work>
    <dc:type rdf:resource="http://purl.org/dc/dcmitype/StillImage"/>
    <dc:date>2025-05-30T19:32:59.076436</dc:date>
    <dc:format>image/svg+xml</dc:format>
    <dc:creator>
     <cc:Agent>
      <dc:title>Matplotlib v3.10.3, https://matplotlib.org/</dc:title>
     </cc:Agent>
    </dc:creator>
   </cc:Work>
  </rdf:RDF>
 </metadata>
 <defs>
  <style type="text/css">*{stroke-linejoin: round; stroke-linecap: butt}</style>
 </defs>
 <g id="figure_1">
  <g id="patch_1">
   <path d="M 0 708.415 
L 1072.96 708.415 
L 1072.96 0 
L 0 0 
z
" style="fill: #ffffff"/>
  </g>
  <g id="axes_1">
   <g id="patch_2">
    <path d="M 36.15 327.3 
L 530.375 327.3 
L 530.375 34.8 
L 36.15 34.8 
z
" style="fill: #eaeaf2"/>
   </g>
   <g id="matplotlib.axis_1">
    <g id="xtick_1">
     <g id="line2d_1">
      <path d="M 76.953363 327.3 
L 76.953363 34.8 
" clip-path="url(#p2bfe40ef2f)" style="fill: none; stroke: #ffffff; stroke-width: 0.8; stroke-linecap: round"/>
     </g>
     <g id="line2d_2"/>
     <g id="text_1">
      <!-- E1 -->
      <g style="fill: #262626" transform="translate(74.421037 345.139905) rotate(-45) scale(0.1 -0.1)">
       <defs>
        <path id="DejaVuSans-45" d="M 628 4666 
L 3578 4666 
L 3578 4134 
L 1259 4134 
L 1259 2753 
L 3481 2753 
L 3481 2222 
L 1259 2222 
L 1259 531 
L 3634 531 
L 3634 0 
L 628 0 
L 628 4666 
z
" transform="scale(0.015625)"/>
        <path id="DejaVuSans-31" d="M 794 531 
L 1825 531 
L 1825 4091 
L 703 3866 
L 703 4441 
L 1819 4666 
L 2450 4666 
L 2450 531 
L 3481 531 
L 3481 0 
L 794 0 
L 794 531 
z
" transform="scale(0.015625)"/>
       </defs>
       <use xlink:href="#DejaVuSans-45"/>
       <use xlink:href="#DejaVuSans-31" transform="translate(63.183594 0)"/>
      </g>
     </g>
    </g>
    <g id="xtick_2">
     <g id="line2d_3">
      <path d="M 122.799838 327.3 
L 122.799838 34.8 
" clip-path="url(#p2bfe40ef2f)" style="fill: none; stroke: #ffffff; stroke-width: 0.8; stroke-linecap: round"/>
     </g>
     <g id="line2d_4"/>
     <g id="text_2">
      <!-- E2 -->
      <g style="fill: #262626" transform="translate(120.267512 345.139905) rotate(-45) scale(0.1 -0.1)">
       <defs>
        <path id="DejaVuSans-32" d="M 1228 531 
L 3431 531 
L 3431 0 
L 469 0 
L 469 531 
Q 828 903 1448 1529 
Q 2069 2156 2228 2338 
Q 2531 2678 2651 2914 
Q 2772 3150 2772 3378 
Q 2772 3750 2511 3984 
Q 2250 4219 1831 4219 
Q 1534 4219 1204 4116 
Q 875 4013 500 3803 
L 500 4441 
Q 881 4594 1212 4672 
Q 1544 4750 1819 4750 
Q 2544 4750 2975 4387 
Q 3406 4025 3406 3419 
Q 3406 3131 3298 2873 
Q 3191 2616 2906 2266 
Q 2828 2175 2409 1742 
Q 1991 1309 1228 531 
z
" transform="scale(0.015625)"/>
       </defs>
       <use xlink:href="#DejaVuSans-45"/>
       <use xlink:href="#DejaVuSans-32" transform="translate(63.183594 0)"/>
      </g>
     </g>
    </g>
    <g id="xtick_3">
     <g id="line2d_5">
      <path d="M 168.646313 327.3 
L 168.646313 34.8 
" clip-path="url(#p2bfe40ef2f)" style="fill: none; stroke: #ffffff; stroke-width: 0.8; stroke-linecap: round"/>
     </g>
     <g id="line2d_6"/>
     <g id="text_3">
      <!-- E3 -->
      <g style="fill: #262626" transform="translate(166.113986 345.139905) rotate(-45) scale(0.1 -0.1)">
       <defs>
        <path id="DejaVuSans-33" d="M 2597 2516 
Q 3050 2419 3304 2112 
Q 3559 1806 3559 1356 
Q 3559 666 3084 287 
Q 2609 -91 1734 -91 
Q 1441 -91 1130 -33 
Q 819 25 488 141 
L 488 750 
Q 750 597 1062 519 
Q 1375 441 1716 441 
Q 2309 441 2620 675 
Q 2931 909 2931 1356 
Q 2931 1769 2642 2001 
Q 2353 2234 1838 2234 
L 1294 2234 
L 1294 2753 
L 1863 2753 
Q 2328 2753 2575 2939 
Q 2822 3125 2822 3475 
Q 2822 3834 2567 4026 
Q 2313 4219 1838 4219 
Q 1578 4219 1281 4162 
Q 984 4106 628 3988 
L 628 4550 
Q 988 4650 1302 4700 
Q 1616 4750 1894 4750 
Q 2613 4750 3031 4423 
Q 3450 4097 3450 3541 
Q 3450 3153 3228 2886 
Q 3006 2619 2597 2516 
z
" transform="scale(0.015625)"/>
       </defs>
       <use xlink:href="#DejaVuSans-45"/>
       <use xlink:href="#DejaVuSans-33" transform="translate(63.183594 0)"/>
      </g>
     </g>
    </g>
    <g id="xtick_4">
     <g id="line2d_7">
      <path d="M 214.492788 327.3 
L 214.492788 34.8 
" clip-path="url(#p2bfe40ef2f)" style="fill: none; stroke: #ffffff; stroke-width: 0.8; stroke-linecap: round"/>
     </g>
     <g id="line2d_8"/>
     <g id="text_4">
      <!-- E4 -->
      <g style="fill: #262626" transform="translate(211.960461 345.139905) rotate(-45) scale(0.1 -0.1)">
       <defs>
        <path id="DejaVuSans-34" d="M 2419 4116 
L 825 1625 
L 2419 1625 
L 2419 4116 
z
M 2253 4666 
L 3047 4666 
L 3047 1625 
L 3713 1625 
L 3713 1100 
L 3047 1100 
L 3047 0 
L 2419 0 
L 2419 1100 
L 313 1100 
L 313 1709 
L 2253 4666 
z
" transform="scale(0.015625)"/>
       </defs>
       <use xlink:href="#DejaVuSans-45"/>
       <use xlink:href="#DejaVuSans-34" transform="translate(63.183594 0)"/>
      </g>
     </g>
    </g>
    <g id="xtick_5">
     <g id="line2d_9">
      <path d="M 260.339263 327.3 
L 260.339263 34.8 
" clip-path="url(#p2bfe40ef2f)" style="fill: none; stroke: #ffffff; stroke-width: 0.8; stroke-linecap: round"/>
     </g>
     <g id="line2d_10"/>
     <g id="text_5">
      <!-- E5 -->
      <g style="fill: #262626" transform="translate(257.806936 345.139905) rotate(-45) scale(0.1 -0.1)">
       <defs>
        <path id="DejaVuSans-35" d="M 691 4666 
L 3169 4666 
L 3169 4134 
L 1269 4134 
L 1269 2991 
Q 1406 3038 1543 3061 
Q 1681 3084 1819 3084 
Q 2600 3084 3056 2656 
Q 3513 2228 3513 1497 
Q 3513 744 3044 326 
Q 2575 -91 1722 -91 
Q 1428 -91 1123 -41 
Q 819 9 494 109 
L 494 744 
Q 775 591 1075 516 
Q 1375 441 1709 441 
Q 2250 441 2565 725 
Q 2881 1009 2881 1497 
Q 2881 1984 2565 2268 
Q 2250 2553 1709 2553 
Q 1456 2553 1204 2497 
Q 953 2441 691 2322 
L 691 4666 
z
" transform="scale(0.015625)"/>
       </defs>
       <use xlink:href="#DejaVuSans-45"/>
       <use xlink:href="#DejaVuSans-35" transform="translate(63.183594 0)"/>
      </g>
     </g>
    </g>
    <g id="xtick_6">
     <g id="line2d_11">
      <path d="M 306.185737 327.3 
L 306.185737 34.8 
" clip-path="url(#p2bfe40ef2f)" style="fill: none; stroke: #ffffff; stroke-width: 0.8; stroke-linecap: round"/>
     </g>
     <g id="line2d_12"/>
     <g id="text_6">
      <!-- E6 -->
      <g style="fill: #262626" transform="translate(303.653411 345.139905) rotate(-45) scale(0.1 -0.1)">
       <defs>
        <path id="DejaVuSans-36" d="M 2113 2584 
Q 1688 2584 1439 2293 
Q 1191 2003 1191 1497 
Q 1191 994 1439 701 
Q 1688 409 2113 409 
Q 2538 409 2786 701 
Q 3034 994 3034 1497 
Q 3034 2003 2786 2293 
Q 2538 2584 2113 2584 
z
M 3366 4563 
L 3366 3988 
Q 3128 4100 2886 4159 
Q 2644 4219 2406 4219 
Q 1781 4219 1451 3797 
Q 1122 3375 1075 2522 
Q 1259 2794 1537 2939 
Q 1816 3084 2150 3084 
Q 2853 3084 3261 2657 
Q 3669 2231 3669 1497 
Q 3669 778 3244 343 
Q 2819 -91 2113 -91 
Q 1303 -91 875 529 
Q 447 1150 447 2328 
Q 447 3434 972 4092 
Q 1497 4750 2381 4750 
Q 2619 4750 2861 4703 
Q 3103 4656 3366 4563 
z
" transform="scale(0.015625)"/>
       </defs>
       <use xlink:href="#DejaVuSans-45"/>
       <use xlink:href="#DejaVuSans-36" transform="translate(63.183594 0)"/>
      </g>
     </g>
    </g>
    <g id="xtick_7">
     <g id="line2d_13">
      <path d="M 352.032212 327.3 
L 352.032212 34.8 
" clip-path="url(#p2bfe40ef2f)" style="fill: none; stroke: #ffffff; stroke-width: 0.8; stroke-linecap: round"/>
     </g>
     <g id="line2d_14"/>
     <g id="text_7">
      <!-- E7 -->
      <g style="fill: #262626" transform="translate(349.499886 345.139905) rotate(-45) scale(0.1 -0.1)">
       <defs>
        <path id="DejaVuSans-37" d="M 525 4666 
L 3525 4666 
L 3525 4397 
L 1831 0 
L 1172 0 
L 2766 4134 
L 525 4134 
L 525 4666 
z
" transform="scale(0.015625)"/>
       </defs>
       <use xlink:href="#DejaVuSans-45"/>
       <use xlink:href="#DejaVuSans-37" transform="translate(63.183594 0)"/>
      </g>
     </g>
    </g>
    <g id="xtick_8">
     <g id="line2d_15">
      <path d="M 397.878687 327.3 
L 397.878687 34.8 
" clip-path="url(#p2bfe40ef2f)" style="fill: none; stroke: #ffffff; stroke-width: 0.8; stroke-linecap: round"/>
     </g>
     <g id="line2d_16"/>
     <g id="text_8">
      <!-- E8 -->
      <g style="fill: #262626" transform="translate(395.346361 345.139905) rotate(-45) scale(0.1 -0.1)">
       <defs>
        <path id="DejaVuSans-38" d="M 2034 2216 
Q 1584 2216 1326 1975 
Q 1069 1734 1069 1313 
Q 1069 891 1326 650 
Q 1584 409 2034 409 
Q 2484 409 2743 651 
Q 3003 894 3003 1313 
Q 3003 1734 2745 1975 
Q 2488 2216 2034 2216 
z
M 1403 2484 
Q 997 2584 770 2862 
Q 544 3141 544 3541 
Q 544 4100 942 4425 
Q 1341 4750 2034 4750 
Q 2731 4750 3128 4425 
Q 3525 4100 3525 3541 
Q 3525 3141 3298 2862 
Q 3072 2584 2669 2484 
Q 3125 2378 3379 2068 
Q 3634 1759 3634 1313 
Q 3634 634 3220 271 
Q 2806 -91 2034 -91 
Q 1263 -91 848 271 
Q 434 634 434 1313 
Q 434 1759 690 2068 
Q 947 2378 1403 2484 
z
M 1172 3481 
Q 1172 3119 1398 2916 
Q 1625 2713 2034 2713 
Q 2441 2713 2670 2916 
Q 2900 3119 2900 3481 
Q 2900 3844 2670 4047 
Q 2441 4250 2034 4250 
Q 1625 4250 1398 4047 
Q 1172 3844 1172 3481 
z
" transform="scale(0.015625)"/>
       </defs>
       <use xlink:href="#DejaVuSans-45"/>
       <use xlink:href="#DejaVuSans-38" transform="translate(63.183594 0)"/>
      </g>
     </g>
    </g>
    <g id="xtick_9">
     <g id="line2d_17">
      <path d="M 443.725162 327.3 
L 443.725162 34.8 
" clip-path="url(#p2bfe40ef2f)" style="fill: none; stroke: #ffffff; stroke-width: 0.8; stroke-linecap: round"/>
     </g>
     <g id="line2d_18"/>
     <g id="text_9">
      <!-- E9 -->
      <g style="fill: #262626" transform="translate(441.192836 345.139905) rotate(-45) scale(0.1 -0.1)">
       <defs>
        <path id="DejaVuSans-39" d="M 703 97 
L 703 672 
Q 941 559 1184 500 
Q 1428 441 1663 441 
Q 2288 441 2617 861 
Q 2947 1281 2994 2138 
Q 2813 1869 2534 1725 
Q 2256 1581 1919 1581 
Q 1219 1581 811 2004 
Q 403 2428 403 3163 
Q 403 3881 828 4315 
Q 1253 4750 1959 4750 
Q 2769 4750 3195 4129 
Q 3622 3509 3622 2328 
Q 3622 1225 3098 567 
Q 2575 -91 1691 -91 
Q 1453 -91 1209 -44 
Q 966 3 703 97 
z
M 1959 2075 
Q 2384 2075 2632 2365 
Q 2881 2656 2881 3163 
Q 2881 3666 2632 3958 
Q 2384 4250 1959 4250 
Q 1534 4250 1286 3958 
Q 1038 3666 1038 3163 
Q 1038 2656 1286 2365 
Q 1534 2075 1959 2075 
z
" transform="scale(0.015625)"/>
       </defs>
       <use xlink:href="#DejaVuSans-45"/>
       <use xlink:href="#DejaVuSans-39" transform="translate(63.183594 0)"/>
      </g>
     </g>
    </g>
    <g id="xtick_10">
     <g id="line2d_19">
      <path d="M 489.571637 327.3 
L 489.571637 34.8 
" clip-path="url(#p2bfe40ef2f)" style="fill: none; stroke: #ffffff; stroke-width: 0.8; stroke-linecap: round"/>
     </g>
     <g id="line2d_20"/>
     <g id="text_10">
      <!-- E10 -->
      <g style="fill: #262626" transform="translate(484.789828 349.638871) rotate(-45) scale(0.1 -0.1)">
       <defs>
        <path id="DejaVuSans-30" d="M 2034 4250 
Q 1547 4250 1301 3770 
Q 1056 3291 1056 2328 
Q 1056 1369 1301 889 
Q 1547 409 2034 409 
Q 2525 409 2770 889 
Q 3016 1369 3016 2328 
Q 3016 3291 2770 3770 
Q 2525 4250 2034 4250 
z
M 2034 4750 
Q 2819 4750 3233 4129 
Q 3647 3509 3647 2328 
Q 3647 1150 3233 529 
Q 2819 -91 2034 -91 
Q 1250 -91 836 529 
Q 422 1150 422 2328 
Q 422 3509 836 4129 
Q 1250 4750 2034 4750 
z
" transform="scale(0.015625)"/>
       </defs>
       <use xlink:href="#DejaVuSans-45"/>
       <use xlink:href="#DejaVuSans-31" transform="translate(63.183594 0)"/>
       <use xlink:href="#DejaVuSans-30" transform="translate(126.806641 0)"/>
      </g>
     </g>
    </g>
   </g>
   <g id="matplotlib.axis_2">
    <g id="ytick_1">
     <g id="line2d_21">
      <path d="M 36.15 327.3 
L 530.375 327.3 
" clip-path="url(#p2bfe40ef2f)" style="fill: none; stroke: #ffffff; stroke-width: 0.8; stroke-linecap: round"/>
     </g>
     <g id="line2d_22"/>
     <g id="text_11">
      <!-- 0 -->
      <g style="fill: #262626" transform="translate(26.2875 331.099219) scale(0.1 -0.1)">
       <use xlink:href="#DejaVuSans-30"/>
      </g>
     </g>
    </g>
    <g id="ytick_2">
     <g id="line2d_23">
      <path d="M 36.15 281.027543 
L 530.375 281.027543 
" clip-path="url(#p2bfe40ef2f)" style="fill: none; stroke: #ffffff; stroke-width: 0.8; stroke-linecap: round"/>
     </g>
     <g id="line2d_24"/>
     <g id="text_12">
      <!-- 500 -->
      <g style="fill: #262626" transform="translate(13.5625 284.826762) scale(0.1 -0.1)">
       <use xlink:href="#DejaVuSans-35"/>
       <use xlink:href="#DejaVuSans-30" transform="translate(63.623047 0)"/>
       <use xlink:href="#DejaVuSans-30" transform="translate(127.246094 0)"/>
      </g>
     </g>
    </g>
    <g id="ytick_3">
     <g id="line2d_25">
      <path d="M 36.15 234.755086 
L 530.375 234.755086 
" clip-path="url(#p2bfe40ef2f)" style="fill: none; stroke: #ffffff; stroke-width: 0.8; stroke-linecap: round"/>
     </g>
     <g id="line2d_26"/>
     <g id="text_13">
      <!-- 1000 -->
      <g style="fill: #262626" transform="translate(7.2 238.554305) scale(0.1 -0.1)">
       <use xlink:href="#DejaVuSans-31"/>
       <use xlink:href="#DejaVuSans-30" transform="translate(63.623047 0)"/>
       <use xlink:href="#DejaVuSans-30" transform="translate(127.246094 0)"/>
       <use xlink:href="#DejaVuSans-30" transform="translate(190.869141 0)"/>
      </g>
     </g>
    </g>
    <g id="ytick_4">
     <g id="line2d_27">
      <path d="M 36.15 188.482629 
L 530.375 188.482629 
" clip-path="url(#p2bfe40ef2f)" style="fill: none; stroke: #ffffff; stroke-width: 0.8; stroke-linecap: round"/>
     </g>
     <g id="line2d_28"/>
     <g id="text_14">
      <!-- 1500 -->
      <g style="fill: #262626" transform="translate(7.2 192.281848) scale(0.1 -0.1)">
       <use xlink:href="#DejaVuSans-31"/>
       <use xlink:href="#DejaVuSans-35" transform="translate(63.623047 0)"/>
       <use xlink:href="#DejaVuSans-30" transform="translate(127.246094 0)"/>
       <use xlink:href="#DejaVuSans-30" transform="translate(190.869141 0)"/>
      </g>
     </g>
    </g>
    <g id="ytick_5">
     <g id="line2d_29">
      <path d="M 36.15 142.210172 
L 530.375 142.210172 
" clip-path="url(#p2bfe40ef2f)" style="fill: none; stroke: #ffffff; stroke-width: 0.8; stroke-linecap: round"/>
     </g>
     <g id="line2d_30"/>
     <g id="text_15">
      <!-- 2000 -->
      <g style="fill: #262626" transform="translate(7.2 146.009391) scale(0.1 -0.1)">
       <use xlink:href="#DejaVuSans-32"/>
       <use xlink:href="#DejaVuSans-30" transform="translate(63.623047 0)"/>
       <use xlink:href="#DejaVuSans-30" transform="translate(127.246094 0)"/>
       <use xlink:href="#DejaVuSans-30" transform="translate(190.869141 0)"/>
      </g>
     </g>
    </g>
    <g id="ytick_6">
     <g id="line2d_31">
      <path d="M 36.15 95.937715 
L 530.375 95.937715 
" clip-path="url(#p2bfe40ef2f)" style="fill: none; stroke: #ffffff; stroke-width: 0.8; stroke-linecap: round"/>
     </g>
     <g id="line2d_32"/>
     <g id="text_16">
      <!-- 2500 -->
      <g style="fill: #262626" transform="translate(7.2 99.736934) scale(0.1 -0.1)">
       <use xlink:href="#DejaVuSans-32"/>
       <use xlink:href="#DejaVuSans-35" transform="translate(63.623047 0)"/>
       <use xlink:href="#DejaVuSans-30" transform="translate(127.246094 0)"/>
       <use xlink:href="#DejaVuSans-30" transform="translate(190.869141 0)"/>
      </g>
     </g>
    </g>
    <g id="ytick_7">
     <g id="line2d_33">
      <path d="M 36.15 49.665258 
L 530.375 49.665258 
" clip-path="url(#p2bfe40ef2f)" style="fill: none; stroke: #ffffff; stroke-width: 0.8; stroke-linecap: round"/>
     </g>
     <g id="line2d_34"/>
     <g id="text_17">
      <!-- 3000 -->
      <g style="fill: #262626" transform="translate(7.2 53.464477) scale(0.1 -0.1)">
       <use xlink:href="#DejaVuSans-33"/>
       <use xlink:href="#DejaVuSans-30" transform="translate(63.623047 0)"/>
       <use xlink:href="#DejaVuSans-30" transform="translate(127.246094 0)"/>
       <use xlink:href="#DejaVuSans-30" transform="translate(190.869141 0)"/>
      </g>
     </g>
    </g>
   </g>
   <g id="patch_3">
    <path d="M 58.614773 327.3 
L 95.291953 327.3 
L 95.291953 283.871625 
L 58.614773 283.871625 
z
" clip-path="url(#p2bfe40ef2f)" style="fill: #87ceeb"/>
   </g>
   <g id="patch_4">
    <path d="M 104.461248 327.3 
L 141.138428 327.3 
L 141.138428 48.728571 
L 104.461248 48.728571 
z
" clip-path="url(#p2bfe40ef2f)" style="fill: #87ceeb"/>
   </g>
   <g id="patch_5">
    <path d="M 150.307723 327.3 
L 186.984903 327.3 
L 186.984903 205.441883 
L 150.307723 205.441883 
z
" clip-path="url(#p2bfe40ef2f)" style="fill: #87ceeb"/>
   </g>
   <g id="patch_6">
    <path d="M 196.154198 327.3 
L 232.831378 327.3 
L 232.831378 242.81181 
L 196.154198 242.81181 
z
" clip-path="url(#p2bfe40ef2f)" style="fill: #87ceeb"/>
   </g>
   <g id="patch_7">
    <path d="M 242.000673 327.3 
L 278.677853 327.3 
L 278.677853 311.602081 
L 242.000673 311.602081 
z
" clip-path="url(#p2bfe40ef2f)" style="fill: #87ceeb"/>
   </g>
   <g id="patch_8">
    <path d="M 287.847147 327.3 
L 324.524327 327.3 
L 324.524327 311.604726 
L 287.847147 311.604726 
z
" clip-path="url(#p2bfe40ef2f)" style="fill: #87ceeb"/>
   </g>
   <g id="patch_9">
    <path d="M 333.693622 327.3 
L 370.370802 327.3 
L 370.370802 321.762226 
L 333.693622 321.762226 
z
" clip-path="url(#p2bfe40ef2f)" style="fill: #87ceeb"/>
   </g>
   <g id="patch_10">
    <path d="M 379.540097 327.3 
L 416.217277 327.3 
L 416.217277 141.170813 
L 379.540097 141.170813 
z
" clip-path="url(#p2bfe40ef2f)" style="fill: #87ceeb"/>
   </g>
   <g id="patch_11">
    <path d="M 425.386572 327.3 
L 462.063752 327.3 
L 462.063752 242.243621 
L 425.386572 242.243621 
z
" clip-path="url(#p2bfe40ef2f)" style="fill: #87ceeb"/>
   </g>
   <g id="patch_12">
    <path d="M 471.233047 327.3 
L 507.910227 327.3 
L 507.910227 213.354069 
L 471.233047 213.354069 
z
" clip-path="url(#p2bfe40ef2f)" style="fill: #87ceeb"/>
   </g>
   <g id="patch_13">
    <path d="M 36.15 327.3 
L 36.15 34.8 
" style="fill: none"/>
   </g>
   <g id="patch_14">
    <path d="M 530.375 327.3 
L 530.375 34.8 
" style="fill: none"/>
   </g>
   <g id="patch_15">
    <path d="M 36.15 327.3 
L 530.375 327.3 
" style="fill: none"/>
   </g>
   <g id="patch_16">
    <path d="M 36.15 34.8 
L 530.375 34.8 
" style="fill: none"/>
   </g>
   <g id="text_18">
    <!-- Vendas Totais por Empresa -->
    <g style="fill: #262626" transform="translate(202.441563 28.8) scale(0.12 -0.12)">
     <defs>
      <path id="DejaVuSans-56" d="M 1831 0 
L 50 4666 
L 709 4666 
L 2188 738 
L 3669 4666 
L 4325 4666 
L 2547 0 
L 1831 0 
z
" transform="scale(0.015625)"/>
      <path id="DejaVuSans-65" d="M 3597 1894 
L 3597 1613 
L 953 1613 
Q 991 1019 1311 708 
Q 1631 397 2203 397 
Q 2534 397 2845 478 
Q 3156 559 3463 722 
L 3463 178 
Q 3153 47 2828 -22 
Q 2503 -91 2169 -91 
Q 1331 -91 842 396 
Q 353 884 353 1716 
Q 353 2575 817 3079 
Q 1281 3584 2069 3584 
Q 2775 3584 3186 3129 
Q 3597 2675 3597 1894 
z
M 3022 2063 
Q 3016 2534 2758 2815 
Q 2500 3097 2075 3097 
Q 1594 3097 1305 2825 
Q 1016 2553 972 2059 
L 3022 2063 
z
" transform="scale(0.015625)"/>
      <path id="DejaVuSans-6e" d="M 3513 2113 
L 3513 0 
L 2938 0 
L 2938 2094 
Q 2938 2591 2744 2837 
Q 2550 3084 2163 3084 
Q 1697 3084 1428 2787 
Q 1159 2491 1159 1978 
L 1159 0 
L 581 0 
L 581 3500 
L 1159 3500 
L 1159 2956 
Q 1366 3272 1645 3428 
Q 1925 3584 2291 3584 
Q 2894 3584 3203 3211 
Q 3513 2838 3513 2113 
z
" transform="scale(0.015625)"/>
      <path id="DejaVuSans-64" d="M 2906 2969 
L 2906 4863 
L 3481 4863 
L 3481 0 
L 2906 0 
L 2906 525 
Q 2725 213 2448 61 
Q 2172 -91 1784 -91 
Q 1150 -91 751 415 
Q 353 922 353 1747 
Q 353 2572 751 3078 
Q 1150 3584 1784 3584 
Q 2172 3584 2448 3432 
Q 2725 3281 2906 2969 
z
M 947 1747 
Q 947 1113 1208 752 
Q 1469 391 1925 391 
Q 2381 391 2643 752 
Q 2906 1113 2906 1747 
Q 2906 2381 2643 2742 
Q 2381 3103 1925 3103 
Q 1469 3103 1208 2742 
Q 947 2381 947 1747 
z
" transform="scale(0.015625)"/>
      <path id="DejaVuSans-61" d="M 2194 1759 
Q 1497 1759 1228 1600 
Q 959 1441 959 1056 
Q 959 750 1161 570 
Q 1363 391 1709 391 
Q 2188 391 2477 730 
Q 2766 1069 2766 1631 
L 2766 1759 
L 2194 1759 
z
M 3341 1997 
L 3341 0 
L 2766 0 
L 2766 531 
Q 2569 213 2275 61 
Q 1981 -91 1556 -91 
Q 1019 -91 701 211 
Q 384 513 384 1019 
Q 384 1609 779 1909 
Q 1175 2209 1959 2209 
L 2766 2209 
L 2766 2266 
Q 2766 2663 2505 2880 
Q 2244 3097 1772 3097 
Q 1472 3097 1187 3025 
Q 903 2953 641 2809 
L 641 3341 
Q 956 3463 1253 3523 
Q 1550 3584 1831 3584 
Q 2591 3584 2966 3190 
Q 3341 2797 3341 1997 
z
" transform="scale(0.015625)"/>
      <path id="DejaVuSans-73" d="M 2834 3397 
L 2834 2853 
Q 2591 2978 2328 3040 
Q 2066 3103 1784 3103 
Q 1356 3103 1142 2972 
Q 928 2841 928 2578 
Q 928 2378 1081 2264 
Q 1234 2150 1697 2047 
L 1894 2003 
Q 2506 1872 2764 1633 
Q 3022 1394 3022 966 
Q 3022 478 2636 193 
Q 2250 -91 1575 -91 
Q 1294 -91 989 -36 
Q 684 19 347 128 
L 347 722 
Q 666 556 975 473 
Q 1284 391 1588 391 
Q 1994 391 2212 530 
Q 2431 669 2431 922 
Q 2431 1156 2273 1281 
Q 2116 1406 1581 1522 
L 1381 1569 
Q 847 1681 609 1914 
Q 372 2147 372 2553 
Q 372 3047 722 3315 
Q 1072 3584 1716 3584 
Q 2034 3584 2315 3537 
Q 2597 3491 2834 3397 
z
" transform="scale(0.015625)"/>
      <path id="DejaVuSans-20" transform="scale(0.015625)"/>
      <path id="DejaVuSans-54" d="M -19 4666 
L 3928 4666 
L 3928 4134 
L 2272 4134 
L 2272 0 
L 1638 0 
L 1638 4134 
L -19 4134 
L -19 4666 
z
" transform="scale(0.015625)"/>
      <path id="DejaVuSans-6f" d="M 1959 3097 
Q 1497 3097 1228 2736 
Q 959 2375 959 1747 
Q 959 1119 1226 758 
Q 1494 397 1959 397 
Q 2419 397 2687 759 
Q 2956 1122 2956 1747 
Q 2956 2369 2687 2733 
Q 2419 3097 1959 3097 
z
M 1959 3584 
Q 2709 3584 3137 3096 
Q 3566 2609 3566 1747 
Q 3566 888 3137 398 
Q 2709 -91 1959 -91 
Q 1206 -91 779 398 
Q 353 888 353 1747 
Q 353 2609 779 3096 
Q 1206 3584 1959 3584 
z
" transform="scale(0.015625)"/>
      <path id="DejaVuSans-74" d="M 1172 4494 
L 1172 3500 
L 2356 3500 
L 2356 3053 
L 1172 3053 
L 1172 1153 
Q 1172 725 1289 603 
Q 1406 481 1766 481 
L 2356 481 
L 2356 0 
L 1766 0 
Q 1100 0 847 248 
Q 594 497 594 1153 
L 594 3053 
L 172 3053 
L 172 3500 
L 594 3500 
L 594 4494 
L 1172 4494 
z
" transform="scale(0.015625)"/>
      <path id="DejaVuSans-69" d="M 603 3500 
L 1178 3500 
L 1178 0 
L 603 0 
L 603 3500 
z
M 603 4863 
L 1178 4863 
L 1178 4134 
L 603 4134 
L 603 4863 
z
" transform="scale(0.015625)"/>
      <path id="DejaVuSans-70" d="M 1159 525 
L 1159 -1331 
L 581 -1331 
L 581 3500 
L 1159 3500 
L 1159 2969 
Q 1341 3281 1617 3432 
Q 1894 3584 2278 3584 
Q 2916 3584 3314 3078 
Q 3713 2572 3713 1747 
Q 3713 922 3314 415 
Q 2916 -91 2278 -91 
Q 1894 -91 1617 61 
Q 1341 213 1159 525 
z
M 3116 1747 
Q 3116 2381 2855 2742 
Q 2594 3103 2138 3103 
Q 1681 3103 1420 2742 
Q 1159 2381 1159 1747 
Q 1159 1113 1420 752 
Q 1681 391 2138 391 
Q 2594 391 2855 752 
Q 3116 1113 3116 1747 
z
" transform="scale(0.015625)"/>
      <path id="DejaVuSans-72" d="M 2631 2963 
Q 2534 3019 2420 3045 
Q 2306 3072 2169 3072 
Q 1681 3072 1420 2755 
Q 1159 2438 1159 1844 
L 1159 0 
L 581 0 
L 581 3500 
L 1159 3500 
L 1159 2956 
Q 1341 3275 1631 3429 
Q 1922 3584 2338 3584 
Q 2397 3584 2469 3576 
Q 2541 3569 2628 3553 
L 2631 2963 
z
" transform="scale(0.015625)"/>
      <path id="DejaVuSans-6d" d="M 3328 2828 
Q 3544 3216 3844 3400 
Q 4144 3584 4550 3584 
Q 5097 3584 5394 3201 
Q 5691 2819 5691 2113 
L 5691 0 
L 5113 0 
L 5113 2094 
Q 5113 2597 4934 2840 
Q 4756 3084 4391 3084 
Q 3944 3084 3684 2787 
Q 3425 2491 3425 1978 
L 3425 0 
L 2847 0 
L 2847 2094 
Q 2847 2600 2669 2842 
Q 2491 3084 2119 3084 
Q 1678 3084 1418 2786 
Q 1159 2488 1159 1978 
L 1159 0 
L 581 0 
L 581 3500 
L 1159 3500 
L 1159 2956 
Q 1356 3278 1631 3431 
Q 1906 3584 2284 3584 
Q 2666 3584 2933 3390 
Q 3200 3197 3328 2828 
z
" transform="scale(0.015625)"/>
     </defs>
     <use xlink:href="#DejaVuSans-56"/>
     <use xlink:href="#DejaVuSans-65" transform="translate(60.658203 0)"/>
     <use xlink:href="#DejaVuSans-6e" transform="translate(122.181641 0)"/>
     <use xlink:href="#DejaVuSans-64" transform="translate(185.560547 0)"/>
     <use xlink:href="#DejaVuSans-61" transform="translate(249.037109 0)"/>
     <use xlink:href="#DejaVuSans-73" transform="translate(310.316406 0)"/>
     <use xlink:href="#DejaVuSans-20" transform="translate(362.416016 0)"/>
     <use xlink:href="#DejaVuSans-54" transform="translate(394.203125 0)"/>
     <use xlink:href="#DejaVuSans-6f" transform="translate(438.287109 0)"/>
     <use xlink:href="#DejaVuSans-74" transform="translate(499.46875 0)"/>
     <use xlink:href="#DejaVuSans-61" transform="translate(538.677734 0)"/>
     <use xlink:href="#DejaVuSans-69" transform="translate(599.957031 0)"/>
     <use xlink:href="#DejaVuSans-73" transform="translate(627.740234 0)"/>
     <use xlink:href="#DejaVuSans-20" transform="translate(679.839844 0)"/>
     <use xlink:href="#DejaVuSans-70" transform="translate(711.626953 0)"/>
     <use xlink:href="#DejaVuSans-6f" transform="translate(775.103516 0)"/>
     <use xlink:href="#DejaVuSans-72" transform="translate(836.285156 0)"/>
     <use xlink:href="#DejaVuSans-20" transform="translate(877.398438 0)"/>
     <use xlink:href="#DejaVuSans-45" transform="translate(909.185547 0)"/>
     <use xlink:href="#DejaVuSans-6d" transform="translate(972.369141 0)"/>
     <use xlink:href="#DejaVuSans-70" transform="translate(1069.78125 0)"/>
     <use xlink:href="#DejaVuSans-72" transform="translate(1133.257812 0)"/>
     <use xlink:href="#DejaVuSans-65" transform="translate(1172.121094 0)"/>
     <use xlink:href="#DejaVuSans-73" transform="translate(1233.644531 0)"/>
     <use xlink:href="#DejaVuSans-61" transform="translate(1285.744141 0)"/>
    </g>
   </g>
  </g>
  <g id="axes_2">
   <g id="patch_17">
    <path d="M 571.535 327.3 
L 1065.76 327.3 
L 1065.76 34.8 
L 571.535 34.8 
z
" style="fill: #eaeaf2"/>
   </g>
   <g id="matplotlib.axis_3">
    <g id="xtick_11">
     <g id="line2d_35">
      <path d="M 584.886989 327.3 
L 584.886989 34.8 
" clip-path="url(#pa81f8d9891)" style="fill: none; stroke: #ffffff; stroke-width: 0.8; stroke-linecap: round"/>
     </g>
     <g id="line2d_36"/>
     <g id="text_19">
      <!-- 0 -->
      <g style="fill: #262626" transform="translate(581.705739 338.398437) scale(0.1 -0.1)">
       <use xlink:href="#DejaVuSans-30"/>
      </g>
     </g>
    </g>
    <g id="xtick_12">
     <g id="line2d_37">
      <path d="M 661.031465 327.3 
L 661.031465 34.8 
" clip-path="url(#pa81f8d9891)" style="fill: none; stroke: #ffffff; stroke-width: 0.8; stroke-linecap: round"/>
     </g>
     <g id="line2d_38"/>
     <g id="text_20">
      <!-- 500 -->
      <g style="fill: #262626" transform="translate(651.487715 338.398437) scale(0.1 -0.1)">
       <use xlink:href="#DejaVuSans-35"/>
       <use xlink:href="#DejaVuSans-30" transform="translate(63.623047 0)"/>
       <use xlink:href="#DejaVuSans-30" transform="translate(127.246094 0)"/>
      </g>
     </g>
    </g>
    <g id="xtick_13">
     <g id="line2d_39">
      <path d="M 737.175941 327.3 
L 737.175941 34.8 
" clip-path="url(#pa81f8d9891)" style="fill: none; stroke: #ffffff; stroke-width: 0.8; stroke-linecap: round"/>
     </g>
     <g id="line2d_40"/>
     <g id="text_21">
      <!-- 1000 -->
      <g style="fill: #262626" transform="translate(724.450941 338.398437) scale(0.1 -0.1)">
       <use xlink:href="#DejaVuSans-31"/>
       <use xlink:href="#DejaVuSans-30" transform="translate(63.623047 0)"/>
       <use xlink:href="#DejaVuSans-30" transform="translate(127.246094 0)"/>
       <use xlink:href="#DejaVuSans-30" transform="translate(190.869141 0)"/>
      </g>
     </g>
    </g>
    <g id="xtick_14">
     <g id="line2d_41">
      <path d="M 813.320417 327.3 
L 813.320417 34.8 
" clip-path="url(#pa81f8d9891)" style="fill: none; stroke: #ffffff; stroke-width: 0.8; stroke-linecap: round"/>
     </g>
     <g id="line2d_42"/>
     <g id="text_22">
      <!-- 1500 -->
      <g style="fill: #262626" transform="translate(800.595417 338.398437) scale(0.1 -0.1)">
       <use xlink:href="#DejaVuSans-31"/>
       <use xlink:href="#DejaVuSans-35" transform="translate(63.623047 0)"/>
       <use xlink:href="#DejaVuSans-30" transform="translate(127.246094 0)"/>
       <use xlink:href="#DejaVuSans-30" transform="translate(190.869141 0)"/>
      </g>
     </g>
    </g>
    <g id="xtick_15">
     <g id="line2d_43">
      <path d="M 889.464893 327.3 
L 889.464893 34.8 
" clip-path="url(#pa81f8d9891)" style="fill: none; stroke: #ffffff; stroke-width: 0.8; stroke-linecap: round"/>
     </g>
     <g id="line2d_44"/>
     <g id="text_23">
      <!-- 2000 -->
      <g style="fill: #262626" transform="translate(876.739893 338.398437) scale(0.1 -0.1)">
       <use xlink:href="#DejaVuSans-32"/>
       <use xlink:href="#DejaVuSans-30" transform="translate(63.623047 0)"/>
       <use xlink:href="#DejaVuSans-30" transform="translate(127.246094 0)"/>
       <use xlink:href="#DejaVuSans-30" transform="translate(190.869141 0)"/>
      </g>
     </g>
    </g>
    <g id="xtick_16">
     <g id="line2d_45">
      <path d="M 965.609369 327.3 
L 965.609369 34.8 
" clip-path="url(#pa81f8d9891)" style="fill: none; stroke: #ffffff; stroke-width: 0.8; stroke-linecap: round"/>
     </g>
     <g id="line2d_46"/>
     <g id="text_24">
      <!-- 2500 -->
      <g style="fill: #262626" transform="translate(952.884369 338.398437) scale(0.1 -0.1)">
       <use xlink:href="#DejaVuSans-32"/>
       <use xlink:href="#DejaVuSans-35" transform="translate(63.623047 0)"/>
       <use xlink:href="#DejaVuSans-30" transform="translate(127.246094 0)"/>
       <use xlink:href="#DejaVuSans-30" transform="translate(190.869141 0)"/>
      </g>
     </g>
    </g>
    <g id="xtick_17">
     <g id="line2d_47">
      <path d="M 1041.753845 327.3 
L 1041.753845 34.8 
" clip-path="url(#pa81f8d9891)" style="fill: none; stroke: #ffffff; stroke-width: 0.8; stroke-linecap: round"/>
     </g>
     <g id="line2d_48"/>
     <g id="text_25">
      <!-- 3000 -->
      <g style="fill: #262626" transform="translate(1029.028845 338.398437) scale(0.1 -0.1)">
       <use xlink:href="#DejaVuSans-33"/>
       <use xlink:href="#DejaVuSans-30" transform="translate(63.623047 0)"/>
       <use xlink:href="#DejaVuSans-30" transform="translate(127.246094 0)"/>
       <use xlink:href="#DejaVuSans-30" transform="translate(190.869141 0)"/>
      </g>
     </g>
    </g>
    <g id="text_26">
     <!-- Vendas Totais -->
     <g style="fill: #262626" transform="translate(784.656094 352.076562) scale(0.1 -0.1)">
      <use xlink:href="#DejaVuSans-56"/>
      <use xlink:href="#DejaVuSans-65" transform="translate(60.658203 0)"/>
      <use xlink:href="#DejaVuSans-6e" transform="translate(122.181641 0)"/>
      <use xlink:href="#DejaVuSans-64" transform="translate(185.560547 0)"/>
      <use xlink:href="#DejaVuSans-61" transform="translate(249.037109 0)"/>
      <use xlink:href="#DejaVuSans-73" transform="translate(310.316406 0)"/>
      <use xlink:href="#DejaVuSans-20" transform="translate(362.416016 0)"/>
      <use xlink:href="#DejaVuSans-54" transform="translate(394.203125 0)"/>
      <use xlink:href="#DejaVuSans-6f" transform="translate(438.287109 0)"/>
      <use xlink:href="#DejaVuSans-74" transform="translate(499.46875 0)"/>
      <use xlink:href="#DejaVuSans-61" transform="translate(538.677734 0)"/>
      <use xlink:href="#DejaVuSans-69" transform="translate(599.957031 0)"/>
      <use xlink:href="#DejaVuSans-73" transform="translate(627.740234 0)"/>
     </g>
    </g>
   </g>
   <g id="matplotlib.axis_4">
    <g id="ytick_8">
     <g id="line2d_49">
      <path d="M 571.535 301.738989 
L 1065.76 301.738989 
" clip-path="url(#pa81f8d9891)" style="fill: none; stroke: #ffffff; stroke-width: 0.8; stroke-linecap: round"/>
     </g>
     <g id="line2d_50"/>
     <g id="text_27">
      <!-- 6 -->
      <g style="fill: #262626" transform="translate(561.6725 305.538208) scale(0.1 -0.1)">
       <use xlink:href="#DejaVuSans-36"/>
      </g>
     </g>
    </g>
    <g id="ytick_9">
     <g id="line2d_51">
      <path d="M 571.535 258.428503 
L 1065.76 258.428503 
" clip-path="url(#pa81f8d9891)" style="fill: none; stroke: #ffffff; stroke-width: 0.8; stroke-linecap: round"/>
     </g>
     <g id="line2d_52"/>
     <g id="text_28">
      <!-- 8 -->
      <g style="fill: #262626" transform="translate(561.6725 262.227722) scale(0.1 -0.1)">
       <use xlink:href="#DejaVuSans-38"/>
      </g>
     </g>
    </g>
    <g id="ytick_10">
     <g id="line2d_53">
      <path d="M 571.535 215.118017 
L 1065.76 215.118017 
" clip-path="url(#pa81f8d9891)" style="fill: none; stroke: #ffffff; stroke-width: 0.8; stroke-linecap: round"/>
     </g>
     <g id="line2d_54"/>
     <g id="text_29">
      <!-- 10 -->
      <g style="fill: #262626" transform="translate(555.31 218.917236) scale(0.1 -0.1)">
       <use xlink:href="#DejaVuSans-31"/>
       <use xlink:href="#DejaVuSans-30" transform="translate(63.623047 0)"/>
      </g>
     </g>
    </g>
    <g id="ytick_11">
     <g id="line2d_55">
      <path d="M 571.535 171.807531 
L 1065.76 171.807531 
" clip-path="url(#pa81f8d9891)" style="fill: none; stroke: #ffffff; stroke-width: 0.8; stroke-linecap: round"/>
     </g>
     <g id="line2d_56"/>
     <g id="text_30">
      <!-- 12 -->
      <g style="fill: #262626" transform="translate(555.31 175.60675) scale(0.1 -0.1)">
       <use xlink:href="#DejaVuSans-31"/>
       <use xlink:href="#DejaVuSans-32" transform="translate(63.623047 0)"/>
      </g>
     </g>
    </g>
    <g id="ytick_12">
     <g id="line2d_57">
      <path d="M 571.535 128.497045 
L 1065.76 128.497045 
" clip-path="url(#pa81f8d9891)" style="fill: none; stroke: #ffffff; stroke-width: 0.8; stroke-linecap: round"/>
     </g>
     <g id="line2d_58"/>
     <g id="text_31">
      <!-- 14 -->
      <g style="fill: #262626" transform="translate(555.31 132.296264) scale(0.1 -0.1)">
       <use xlink:href="#DejaVuSans-31"/>
       <use xlink:href="#DejaVuSans-34" transform="translate(63.623047 0)"/>
      </g>
     </g>
    </g>
    <g id="ytick_13">
     <g id="line2d_59">
      <path d="M 571.535 85.186559 
L 1065.76 85.186559 
" clip-path="url(#pa81f8d9891)" style="fill: none; stroke: #ffffff; stroke-width: 0.8; stroke-linecap: round"/>
     </g>
     <g id="line2d_60"/>
     <g id="text_32">
      <!-- 16 -->
      <g style="fill: #262626" transform="translate(555.31 88.985778) scale(0.1 -0.1)">
       <use xlink:href="#DejaVuSans-31"/>
       <use xlink:href="#DejaVuSans-36" transform="translate(63.623047 0)"/>
      </g>
     </g>
    </g>
    <g id="ytick_14">
     <g id="line2d_61">
      <path d="M 571.535 41.876073 
L 1065.76 41.876073 
" clip-path="url(#pa81f8d9891)" style="fill: none; stroke: #ffffff; stroke-width: 0.8; stroke-linecap: round"/>
     </g>
     <g id="line2d_62"/>
     <g id="text_33">
      <!-- 18 -->
      <g style="fill: #262626" transform="translate(555.31 45.675292) scale(0.1 -0.1)">
       <use xlink:href="#DejaVuSans-31"/>
       <use xlink:href="#DejaVuSans-38" transform="translate(63.623047 0)"/>
      </g>
     </g>
    </g>
    <g id="text_34">
     <!-- Margem de Lucro (%) -->
     <g style="fill: #262626" transform="translate(549.230312 234.80625) rotate(-90) scale(0.1 -0.1)">
      <defs>
       <path id="DejaVuSans-4d" d="M 628 4666 
L 1569 4666 
L 2759 1491 
L 3956 4666 
L 4897 4666 
L 4897 0 
L 4281 0 
L 4281 4097 
L 3078 897 
L 2444 897 
L 1241 4097 
L 1241 0 
L 628 0 
L 628 4666 
z
" transform="scale(0.015625)"/>
       <path id="DejaVuSans-67" d="M 2906 1791 
Q 2906 2416 2648 2759 
Q 2391 3103 1925 3103 
Q 1463 3103 1205 2759 
Q 947 2416 947 1791 
Q 947 1169 1205 825 
Q 1463 481 1925 481 
Q 2391 481 2648 825 
Q 2906 1169 2906 1791 
z
M 3481 434 
Q 3481 -459 3084 -895 
Q 2688 -1331 1869 -1331 
Q 1566 -1331 1297 -1286 
Q 1028 -1241 775 -1147 
L 775 -588 
Q 1028 -725 1275 -790 
Q 1522 -856 1778 -856 
Q 2344 -856 2625 -561 
Q 2906 -266 2906 331 
L 2906 616 
Q 2728 306 2450 153 
Q 2172 0 1784 0 
Q 1141 0 747 490 
Q 353 981 353 1791 
Q 353 2603 747 3093 
Q 1141 3584 1784 3584 
Q 2172 3584 2450 3431 
Q 2728 3278 2906 2969 
L 2906 3500 
L 3481 3500 
L 3481 434 
z
" transform="scale(0.015625)"/>
       <path id="DejaVuSans-4c" d="M 628 4666 
L 1259 4666 
L 1259 531 
L 3531 531 
L 3531 0 
L 628 0 
L 628 4666 
z
" transform="scale(0.015625)"/>
       <path id="DejaVuSans-75" d="M 544 1381 
L 544 3500 
L 1119 3500 
L 1119 1403 
Q 1119 906 1312 657 
Q 1506 409 1894 409 
Q 2359 409 2629 706 
Q 2900 1003 2900 1516 
L 2900 3500 
L 3475 3500 
L 3475 0 
L 2900 0 
L 2900 538 
Q 2691 219 2414 64 
Q 2138 -91 1772 -91 
Q 1169 -91 856 284 
Q 544 659 544 1381 
z
M 1991 3584 
L 1991 3584 
z
" transform="scale(0.015625)"/>
       <path id="DejaVuSans-63" d="M 3122 3366 
L 3122 2828 
Q 2878 2963 2633 3030 
Q 2388 3097 2138 3097 
Q 1578 3097 1268 2742 
Q 959 2388 959 1747 
Q 959 1106 1268 751 
Q 1578 397 2138 397 
Q 2388 397 2633 464 
Q 2878 531 3122 666 
L 3122 134 
Q 2881 22 2623 -34 
Q 2366 -91 2075 -91 
Q 1284 -91 818 406 
Q 353 903 353 1747 
Q 353 2603 823 3093 
Q 1294 3584 2113 3584 
Q 2378 3584 2631 3529 
Q 2884 3475 3122 3366 
z
" transform="scale(0.015625)"/>
       <path id="DejaVuSans-28" d="M 1984 4856 
Q 1566 4138 1362 3434 
Q 1159 2731 1159 2009 
Q 1159 1288 1364 580 
Q 1569 -128 1984 -844 
L 1484 -844 
Q 1016 -109 783 600 
Q 550 1309 550 2009 
Q 550 2706 781 3412 
Q 1013 4119 1484 4856 
L 1984 4856 
z
" transform="scale(0.015625)"/>
       <path id="DejaVuSans-25" d="M 4653 2053 
Q 4381 2053 4226 1822 
Q 4072 1591 4072 1178 
Q 4072 772 4226 539 
Q 4381 306 4653 306 
Q 4919 306 5073 539 
Q 5228 772 5228 1178 
Q 5228 1588 5073 1820 
Q 4919 2053 4653 2053 
z
M 4653 2450 
Q 5147 2450 5437 2106 
Q 5728 1763 5728 1178 
Q 5728 594 5436 251 
Q 5144 -91 4653 -91 
Q 4153 -91 3862 251 
Q 3572 594 3572 1178 
Q 3572 1766 3864 2108 
Q 4156 2450 4653 2450 
z
M 1428 4353 
Q 1159 4353 1004 4120 
Q 850 3888 850 3481 
Q 850 3069 1003 2837 
Q 1156 2606 1428 2606 
Q 1700 2606 1854 2837 
Q 2009 3069 2009 3481 
Q 2009 3884 1853 4118 
Q 1697 4353 1428 4353 
z
M 4250 4750 
L 4750 4750 
L 1831 -91 
L 1331 -91 
L 4250 4750 
z
M 1428 4750 
Q 1922 4750 2215 4408 
Q 2509 4066 2509 3481 
Q 2509 2891 2217 2550 
Q 1925 2209 1428 2209 
Q 931 2209 642 2551 
Q 353 2894 353 3481 
Q 353 4063 643 4406 
Q 934 4750 1428 4750 
z
" transform="scale(0.015625)"/>
       <path id="DejaVuSans-29" d="M 513 4856 
L 1013 4856 
Q 1481 4119 1714 3412 
Q 1947 2706 1947 2009 
Q 1947 1309 1714 600 
Q 1481 -109 1013 -844 
L 513 -844 
Q 928 -128 1133 580 
Q 1338 1288 1338 2009 
Q 1338 2731 1133 3434 
Q 928 4138 513 4856 
z
" transform="scale(0.015625)"/>
      </defs>
      <use xlink:href="#DejaVuSans-4d"/>
      <use xlink:href="#DejaVuSans-61" transform="translate(86.279297 0)"/>
      <use xlink:href="#DejaVuSans-72" transform="translate(147.558594 0)"/>
      <use xlink:href="#DejaVuSans-67" transform="translate(186.921875 0)"/>
      <use xlink:href="#DejaVuSans-65" transform="translate(250.398438 0)"/>
      <use xlink:href="#DejaVuSans-6d" transform="translate(311.921875 0)"/>
      <use xlink:href="#DejaVuSans-20" transform="translate(409.333984 0)"/>
      <use xlink:href="#DejaVuSans-64" transform="translate(441.121094 0)"/>
      <use xlink:href="#DejaVuSans-65" transform="translate(504.597656 0)"/>
      <use xlink:href="#DejaVuSans-20" transform="translate(566.121094 0)"/>
      <use xlink:href="#DejaVuSans-4c" transform="translate(597.908203 0)"/>
      <use xlink:href="#DejaVuSans-75" transform="translate(651.871094 0)"/>
      <use xlink:href="#DejaVuSans-63" transform="translate(715.25 0)"/>
      <use xlink:href="#DejaVuSans-72" transform="translate(770.230469 0)"/>
      <use xlink:href="#DejaVuSans-6f" transform="translate(809.09375 0)"/>
      <use xlink:href="#DejaVuSans-20" transform="translate(870.275391 0)"/>
      <use xlink:href="#DejaVuSans-28" transform="translate(902.0625 0)"/>
      <use xlink:href="#DejaVuSans-25" transform="translate(941.076172 0)"/>
      <use xlink:href="#DejaVuSans-29" transform="translate(1036.095703 0)"/>
     </g>
    </g>
   </g>
   <g id="PathCollection_1">
    <path d="M 656.351335 159.00625 
C 656.704463 159.00625 657.043175 158.865951 657.292875 158.616252 
C 657.542574 158.366552 657.682873 158.02784 657.682873 157.674712 
C 657.682873 157.321584 657.542574 156.982872 657.292875 156.733172 
C 657.043175 156.483473 656.704463 156.343174 656.351335 156.343174 
C 655.998207 156.343174 655.659495 156.483473 655.409795 156.733172 
C 655.160096 156.982872 655.019797 157.321584 655.019797 157.674712 
C 655.019797 158.02784 655.160096 158.366552 655.409795 158.616252 
C 655.659495 158.865951 655.998207 159.00625 656.351335 159.00625 
z
" clip-path="url(#pa81f8d9891)" style="fill: #433d84; fill-opacity: 0.7; stroke: #433d84; stroke-opacity: 0.7"/>
    <path d="M 1043.295227 49.37878 
C 1043.635569 49.37878 1043.962017 49.243561 1044.202675 49.002903 
C 1044.443333 48.762245 1044.578553 48.435796 1044.578553 48.095455 
C 1044.578553 47.755113 1044.443333 47.428665 1044.202675 47.188006 
C 1043.962017 46.947348 1043.635569 46.812129 1043.295227 46.812129 
C 1042.954885 46.812129 1042.628437 46.947348 1042.387779 47.188006 
C 1042.147121 47.428665 1042.011902 47.755113 1042.011902 48.095455 
C 1042.011902 48.435796 1042.147121 48.762245 1042.387779 49.002903 
C 1042.628437 49.243561 1042.954885 49.37878 1043.295227 49.37878 
z
" clip-path="url(#pa81f8d9891)" style="fill: #440256; fill-opacity: 0.7; stroke: #440256; stroke-opacity: 0.7"/>
    <path d="M 785.412811 158.557231 
C 785.820777 158.557231 786.212088 158.395144 786.500564 158.106669 
C 786.789039 157.818194 786.951126 157.426882 786.951126 157.018916 
C 786.951126 156.61095 786.789039 156.219639 786.500564 155.931163 
C 786.212088 155.642688 785.820777 155.480601 785.412811 155.480601 
C 785.004845 155.480601 784.613534 155.642688 784.325058 155.931163 
C 784.036583 156.219639 783.874496 156.61095 783.874496 157.018916 
C 783.874496 157.426882 784.036583 157.818194 784.325058 158.106669 
C 784.613534 158.395144 785.004845 158.557231 785.412811 158.557231 
z
" clip-path="url(#pa81f8d9891)" style="fill: #fde725; fill-opacity: 0.7; stroke: #fde725; stroke-opacity: 0.7"/>
    <path d="M 723.918054 158.663372 
C 724.287778 158.663372 724.642408 158.516479 724.903842 158.255045 
C 725.165276 157.993611 725.312169 157.638981 725.312169 157.269257 
C 725.312169 156.899534 725.165276 156.544903 724.903842 156.283469 
C 724.642408 156.022035 724.287778 155.875143 723.918054 155.875143 
C 723.548331 155.875143 723.1937 156.022035 722.932266 156.283469 
C 722.670832 156.544903 722.523939 156.899534 722.523939 157.269257 
C 722.523939 157.638981 722.670832 157.993611 722.932266 158.255045 
C 723.1937 158.516479 723.548331 158.663372 723.918054 158.663372 
z
" clip-path="url(#pa81f8d9891)" style="fill: #287c8e; fill-opacity: 0.7; stroke: #287c8e; stroke-opacity: 0.7"/>
    <path d="M 610.718983 82.063213 
C 611.095617 82.063213 611.456875 81.913575 611.723195 81.647255 
C 611.989515 81.380935 612.139153 81.019677 612.139153 80.643044 
C 612.139153 80.26641 611.989515 79.905152 611.723195 79.638832 
C 611.456875 79.372512 611.095617 79.222874 610.718983 79.222874 
C 610.34235 79.222874 609.981092 79.372512 609.714771 79.638832 
C 609.448451 79.905152 609.298813 80.26641 609.298813 80.643044 
C 609.298813 81.019677 609.448451 81.380935 609.714771 81.647255 
C 609.981092 81.913575 610.34235 82.063213 610.718983 82.063213 
z
" clip-path="url(#pa81f8d9891)" style="fill: #1f948c; fill-opacity: 0.7; stroke: #1f948c; stroke-opacity: 0.7"/>
    <path d="M 610.714631 315.286658 
C 611.054651 315.286658 611.380791 315.151567 611.621221 314.911136 
C 611.861652 314.670705 611.996744 314.344566 611.996744 314.004545 
C 611.996744 313.664525 611.861652 313.338386 611.621221 313.097955 
C 611.380791 312.857524 611.054651 312.722433 610.714631 312.722433 
C 610.374611 312.722433 610.048471 312.857524 609.80804 313.097955 
C 609.56761 313.338386 609.432518 313.664525 609.432518 314.004545 
C 609.432518 314.344566 609.56761 314.670705 609.80804 314.911136 
C 610.048471 315.151567 610.374611 315.286658 610.714631 315.286658 
z
" clip-path="url(#pa81f8d9891)" style="fill: #440154; fill-opacity: 0.7; stroke: #440154; stroke-opacity: 0.7"/>
    <path d="M 593.999773 294.974625 
C 594.361841 294.974625 594.709129 294.830774 594.965149 294.574753 
C 595.22117 294.318732 595.365022 293.971445 595.365022 293.609376 
C 595.365022 293.247308 595.22117 292.900021 594.965149 292.644 
C 594.709129 292.387979 594.361841 292.244128 593.999773 292.244128 
C 593.637705 292.244128 593.290417 292.387979 593.034396 292.644 
C 592.778375 292.900021 592.634524 293.247308 592.634524 293.609376 
C 592.634524 293.971445 592.778375 294.318732 593.034396 294.574753 
C 593.290417 294.830774 593.637705 294.974625 593.999773 294.974625 
z
" clip-path="url(#pa81f8d9891)" style="fill: #34608d; fill-opacity: 0.7; stroke: #34608d; stroke-opacity: 0.7"/>
    <path d="M 891.17523 169.148152 
C 891.552875 169.148152 891.915103 168.998112 892.182139 168.731077 
C 892.449174 168.464041 892.599214 168.101813 892.599214 167.724168 
C 892.599214 167.346523 892.449174 166.984294 892.182139 166.717259 
C 891.915103 166.450224 891.552875 166.300184 891.17523 166.300184 
C 890.797585 166.300184 890.435356 166.450224 890.168321 166.717259 
C 889.901286 166.984294 889.751246 167.346523 889.751246 167.724168 
C 889.751246 168.101813 889.901286 168.464041 890.168321 168.731077 
C 890.435356 168.998112 890.797585 169.148152 891.17523 169.148152 
z
" clip-path="url(#pa81f8d9891)" style="fill: #1f988b; fill-opacity: 0.7; stroke: #1f988b; stroke-opacity: 0.7"/>
    <path d="M 724.853047 217.815853 
C 725.200074 217.815853 725.532933 217.677978 725.778318 217.432593 
C 726.023703 217.187209 726.161578 216.854349 726.161578 216.507323 
C 726.161578 216.160296 726.023703 215.827437 725.778318 215.582052 
C 725.532933 215.336667 725.200074 215.198792 724.853047 215.198792 
C 724.506021 215.198792 724.173161 215.336667 723.927777 215.582052 
C 723.682392 215.827437 723.544517 216.160296 723.544517 216.507323 
C 723.544517 216.854349 723.682392 217.187209 723.927777 217.432593 
C 724.173161 217.677978 724.506021 217.815853 724.853047 217.815853 
z
" clip-path="url(#pa81f8d9891)" style="fill: #482374; fill-opacity: 0.7; stroke: #482374; stroke-opacity: 0.7"/>
    <path d="M 772.392771 74.263331 
C 772.77653 74.263331 773.144624 74.110861 773.415983 73.839502 
C 773.687341 73.568144 773.839811 73.20005 773.839811 72.816291 
C 773.839811 72.432531 773.687341 72.064438 773.415983 71.793079 
C 773.144624 71.52172 772.77653 71.369251 772.392771 71.369251 
C 772.009011 71.369251 771.640918 71.52172 771.369559 71.793079 
C 771.0982 72.064438 770.945731 72.432531 770.945731 72.816291 
C 770.945731 73.20005 771.0982 73.568144 771.369559 73.839502 
C 771.640918 74.110861 772.009011 74.263331 772.392771 74.263331 
z
" clip-path="url(#pa81f8d9891)" style="fill: #27ad81; fill-opacity: 0.7; stroke: #27ad81; stroke-opacity: 0.7"/>
   </g>
   <g id="patch_18">
    <path d="M 571.535 327.3 
L 571.535 34.8 
" style="fill: none"/>
   </g>
   <g id="patch_19">
    <path d="M 1065.76 327.3 
L 1065.76 34.8 
" style="fill: none"/>
   </g>
   <g id="patch_20">
    <path d="M 571.535 327.3 
L 1065.76 327.3 
" style="fill: none"/>
   </g>
   <g id="patch_21">
    <path d="M 571.535 34.8 
L 1065.76 34.8 
" style="fill: none"/>
   </g>
   <g id="text_35">
    <!-- Relação Vendas x Margem (Tamanho = Satisfação) -->
    <g style="fill: #262626" transform="translate(665.841563 28.8) scale(0.12 -0.12)">
     <defs>
      <path id="DejaVuSans-52" d="M 2841 2188 
Q 3044 2119 3236 1894 
Q 3428 1669 3622 1275 
L 4263 0 
L 3584 0 
L 2988 1197 
Q 2756 1666 2539 1819 
Q 2322 1972 1947 1972 
L 1259 1972 
L 1259 0 
L 628 0 
L 628 4666 
L 2053 4666 
Q 2853 4666 3247 4331 
Q 3641 3997 3641 3322 
Q 3641 2881 3436 2590 
Q 3231 2300 2841 2188 
z
M 1259 4147 
L 1259 2491 
L 2053 2491 
Q 2509 2491 2742 2702 
Q 2975 2913 2975 3322 
Q 2975 3731 2742 3939 
Q 2509 4147 2053 4147 
L 1259 4147 
z
" transform="scale(0.015625)"/>
      <path id="DejaVuSans-6c" d="M 603 4863 
L 1178 4863 
L 1178 0 
L 603 0 
L 603 4863 
z
" transform="scale(0.015625)"/>
      <path id="DejaVuSans-e7" d="M 3122 3366 
L 3122 2828 
Q 2878 2963 2633 3030 
Q 2388 3097 2138 3097 
Q 1578 3097 1268 2742 
Q 959 2388 959 1747 
Q 959 1106 1268 751 
Q 1578 397 2138 397 
Q 2388 397 2633 464 
Q 2878 531 3122 666 
L 3122 134 
Q 2881 22 2623 -34 
Q 2366 -91 2075 -91 
Q 1284 -91 818 406 
Q 353 903 353 1747 
Q 353 2603 823 3093 
Q 1294 3584 2113 3584 
Q 2378 3584 2631 3529 
Q 2884 3475 3122 3366 
z
M 2311 0 
Q 2482 -194 2566 -358 
Q 2651 -522 2651 -672 
Q 2651 -950 2463 -1092 
Q 2276 -1234 1907 -1234 
Q 1764 -1234 1628 -1215 
Q 1492 -1197 1357 -1159 
L 1357 -750 
Q 1464 -803 1579 -826 
Q 1695 -850 1842 -850 
Q 2026 -850 2120 -775 
Q 2214 -700 2214 -556 
Q 2214 -463 2146 -327 
Q 2079 -191 1939 0 
L 2311 0 
z
" transform="scale(0.015625)"/>
      <path id="DejaVuSans-e3" d="M 2194 1759 
Q 1497 1759 1228 1600 
Q 959 1441 959 1056 
Q 959 750 1161 570 
Q 1363 391 1709 391 
Q 2188 391 2477 730 
Q 2766 1069 2766 1631 
L 2766 1759 
L 2194 1759 
z
M 3341 1997 
L 3341 0 
L 2766 0 
L 2766 531 
Q 2569 213 2275 61 
Q 1981 -91 1556 -91 
Q 1019 -91 701 211 
Q 384 513 384 1019 
Q 384 1609 779 1909 
Q 1175 2209 1959 2209 
L 2766 2209 
L 2766 2266 
Q 2766 2663 2505 2880 
Q 2244 3097 1772 3097 
Q 1472 3097 1187 3025 
Q 903 2953 641 2809 
L 641 3341 
Q 956 3463 1253 3523 
Q 1550 3584 1831 3584 
Q 2591 3584 2966 3190 
Q 3341 2797 3341 1997 
z
M 1844 4281 
L 1665 4453 
Q 1597 4516 1545 4545 
Q 1494 4575 1453 4575 
Q 1334 4575 1278 4461 
Q 1222 4347 1215 4091 
L 825 4091 
Q 831 4513 990 4742 
Q 1150 4972 1434 4972 
Q 1553 4972 1653 4928 
Q 1753 4884 1869 4781 
L 2047 4609 
Q 2115 4547 2167 4517 
Q 2219 4488 2259 4488 
Q 2378 4488 2434 4602 
Q 2490 4716 2497 4972 
L 2887 4972 
Q 2881 4550 2721 4320 
Q 2562 4091 2278 4091 
Q 2159 4091 2059 4134 
Q 1959 4178 1844 4281 
z
" transform="scale(0.015625)"/>
      <path id="DejaVuSans-78" d="M 3513 3500 
L 2247 1797 
L 3578 0 
L 2900 0 
L 1881 1375 
L 863 0 
L 184 0 
L 1544 1831 
L 300 3500 
L 978 3500 
L 1906 2253 
L 2834 3500 
L 3513 3500 
z
" transform="scale(0.015625)"/>
      <path id="DejaVuSans-68" d="M 3513 2113 
L 3513 0 
L 2938 0 
L 2938 2094 
Q 2938 2591 2744 2837 
Q 2550 3084 2163 3084 
Q 1697 3084 1428 2787 
Q 1159 2491 1159 1978 
L 1159 0 
L 581 0 
L 581 4863 
L 1159 4863 
L 1159 2956 
Q 1366 3272 1645 3428 
Q 1925 3584 2291 3584 
Q 2894 3584 3203 3211 
Q 3513 2838 3513 2113 
z
" transform="scale(0.015625)"/>
      <path id="DejaVuSans-3d" d="M 678 2906 
L 4684 2906 
L 4684 2381 
L 678 2381 
L 678 2906 
z
M 678 1631 
L 4684 1631 
L 4684 1100 
L 678 1100 
L 678 1631 
z
" transform="scale(0.015625)"/>
      <path id="DejaVuSans-53" d="M 3425 4513 
L 3425 3897 
Q 3066 4069 2747 4153 
Q 2428 4238 2131 4238 
Q 1616 4238 1336 4038 
Q 1056 3838 1056 3469 
Q 1056 3159 1242 3001 
Q 1428 2844 1947 2747 
L 2328 2669 
Q 3034 2534 3370 2195 
Q 3706 1856 3706 1288 
Q 3706 609 3251 259 
Q 2797 -91 1919 -91 
Q 1588 -91 1214 -16 
Q 841 59 441 206 
L 441 856 
Q 825 641 1194 531 
Q 1563 422 1919 422 
Q 2459 422 2753 634 
Q 3047 847 3047 1241 
Q 3047 1584 2836 1778 
Q 2625 1972 2144 2069 
L 1759 2144 
Q 1053 2284 737 2584 
Q 422 2884 422 3419 
Q 422 4038 858 4394 
Q 1294 4750 2059 4750 
Q 2388 4750 2728 4690 
Q 3069 4631 3425 4513 
z
" transform="scale(0.015625)"/>
      <path id="DejaVuSans-66" d="M 2375 4863 
L 2375 4384 
L 1825 4384 
Q 1516 4384 1395 4259 
Q 1275 4134 1275 3809 
L 1275 3500 
L 2222 3500 
L 2222 3053 
L 1275 3053 
L 1275 0 
L 697 0 
L 697 3053 
L 147 3053 
L 147 3500 
L 697 3500 
L 697 3744 
Q 697 4328 969 4595 
Q 1241 4863 1831 4863 
L 2375 4863 
z
" transform="scale(0.015625)"/>
     </defs>
     <use xlink:href="#DejaVuSans-52"/>
     <use xlink:href="#DejaVuSans-65" transform="translate(64.982422 0)"/>
     <use xlink:href="#DejaVuSans-6c" transform="translate(126.505859 0)"/>
     <use xlink:href="#DejaVuSans-61" transform="translate(154.289062 0)"/>
     <use xlink:href="#DejaVuSans-e7" transform="translate(215.568359 0)"/>
     <use xlink:href="#DejaVuSans-e3" transform="translate(270.548828 0)"/>
     <use xlink:href="#DejaVuSans-6f" transform="translate(331.828125 0)"/>
     <use xlink:href="#DejaVuSans-20" transform="translate(393.009766 0)"/>
     <use xlink:href="#DejaVuSans-56" transform="translate(424.796875 0)"/>
     <use xlink:href="#DejaVuSans-65" transform="translate(485.455078 0)"/>
     <use xlink:href="#DejaVuSans-6e" transform="translate(546.978516 0)"/>
     <use xlink:href="#DejaVuSans-64" transform="translate(610.357422 0)"/>
     <use xlink:href="#DejaVuSans-61" transform="translate(673.833984 0)"/>
     <use xlink:href="#DejaVuSans-73" transform="translate(735.113281 0)"/>
     <use xlink:href="#DejaVuSans-20" transform="translate(787.212891 0)"/>
     <use xlink:href="#DejaVuSans-78" transform="translate(819 0)"/>
     <use xlink:href="#DejaVuSans-20" transform="translate(878.179688 0)"/>
     <use xlink:href="#DejaVuSans-4d" transform="translate(909.966797 0)"/>
     <use xlink:href="#DejaVuSans-61" transform="translate(996.246094 0)"/>
     <use xlink:href="#DejaVuSans-72" transform="translate(1057.525391 0)"/>
     <use xlink:href="#DejaVuSans-67" transform="translate(1096.888672 0)"/>
     <use xlink:href="#DejaVuSans-65" transform="translate(1160.365234 0)"/>
     <use xlink:href="#DejaVuSans-6d" transform="translate(1221.888672 0)"/>
     <use xlink:href="#DejaVuSans-20" transform="translate(1319.300781 0)"/>
     <use xlink:href="#DejaVuSans-28" transform="translate(1351.087891 0)"/>
     <use xlink:href="#DejaVuSans-54" transform="translate(1390.101562 0)"/>
     <use xlink:href="#DejaVuSans-61" transform="translate(1434.685547 0)"/>
     <use xlink:href="#DejaVuSans-6d" transform="translate(1495.964844 0)"/>
     <use xlink:href="#DejaVuSans-61" transform="translate(1593.376953 0)"/>
     <use xlink:href="#DejaVuSans-6e" transform="translate(1654.65625 0)"/>
     <use xlink:href="#DejaVuSans-68" transform="translate(1718.035156 0)"/>
     <use xlink:href="#DejaVuSans-6f" transform="translate(1781.414062 0)"/>
     <use xlink:href="#DejaVuSans-20" transform="translate(1842.595703 0)"/>
     <use xlink:href="#DejaVuSans-3d" transform="translate(1874.382812 0)"/>
     <use xlink:href="#DejaVuSans-20" transform="translate(1958.171875 0)"/>
     <use xlink:href="#DejaVuSans-53" transform="translate(1989.958984 0)"/>
     <use xlink:href="#DejaVuSans-61" transform="translate(2053.435547 0)"/>
     <use xlink:href="#DejaVuSans-74" transform="translate(2114.714844 0)"/>
     <use xlink:href="#DejaVuSans-69" transform="translate(2153.923828 0)"/>
     <use xlink:href="#DejaVuSans-73" transform="translate(2181.707031 0)"/>
     <use xlink:href="#DejaVuSans-66" transform="translate(2233.806641 0)"/>
     <use xlink:href="#DejaVuSans-61" transform="translate(2269.011719 0)"/>
     <use xlink:href="#DejaVuSans-e7" transform="translate(2330.291016 0)"/>
     <use xlink:href="#DejaVuSans-e3" transform="translate(2385.271484 0)"/>
     <use xlink:href="#DejaVuSans-6f" transform="translate(2446.550781 0)"/>
     <use xlink:href="#DejaVuSans-29" transform="translate(2507.732422 0)"/>
    </g>
   </g>
  </g>
  <g id="axes_3">
   <g id="patch_22">
    <path d="M 36.15 674.34 
L 530.375 674.34 
L 530.375 381.84 
L 36.15 381.84 
z
" style="fill: #eaeaf2"/>
   </g>
   <g id="matplotlib.axis_5">
    <g id="xtick_18">
     <g id="line2d_63">
      <path d="M 46.917314 674.34 
L 46.917314 381.84 
" clip-path="url(#pe2baea57d2)" style="fill: none; stroke: #ffffff; stroke-width: 0.8; stroke-linecap: round"/>
     </g>
     <g id="line2d_64"/>
     <g id="text_36">
      <!-- 6.5 -->
      <g style="fill: #262626" transform="translate(38.965752 685.438437) scale(0.1 -0.1)">
       <defs>
        <path id="DejaVuSans-2e" d="M 684 794 
L 1344 794 
L 1344 0 
L 684 0 
L 684 794 
z
" transform="scale(0.015625)"/>
       </defs>
       <use xlink:href="#DejaVuSans-36"/>
       <use xlink:href="#DejaVuSans-2e" transform="translate(63.623047 0)"/>
       <use xlink:href="#DejaVuSans-35" transform="translate(95.410156 0)"/>
      </g>
     </g>
    </g>
    <g id="xtick_19">
     <g id="line2d_65">
      <path d="M 124.639417 674.34 
L 124.639417 381.84 
" clip-path="url(#pe2baea57d2)" style="fill: none; stroke: #ffffff; stroke-width: 0.8; stroke-linecap: round"/>
     </g>
     <g id="line2d_66"/>
     <g id="text_37">
      <!-- 7.0 -->
      <g style="fill: #262626" transform="translate(116.687854 685.438437) scale(0.1 -0.1)">
       <use xlink:href="#DejaVuSans-37"/>
       <use xlink:href="#DejaVuSans-2e" transform="translate(63.623047 0)"/>
       <use xlink:href="#DejaVuSans-30" transform="translate(95.410156 0)"/>
      </g>
     </g>
    </g>
    <g id="xtick_20">
     <g id="line2d_67">
      <path d="M 202.361519 674.34 
L 202.361519 381.84 
" clip-path="url(#pe2baea57d2)" style="fill: none; stroke: #ffffff; stroke-width: 0.8; stroke-linecap: round"/>
     </g>
     <g id="line2d_68"/>
     <g id="text_38">
      <!-- 7.5 -->
      <g style="fill: #262626" transform="translate(194.409956 685.438437) scale(0.1 -0.1)">
       <use xlink:href="#DejaVuSans-37"/>
       <use xlink:href="#DejaVuSans-2e" transform="translate(63.623047 0)"/>
       <use xlink:href="#DejaVuSans-35" transform="translate(95.410156 0)"/>
      </g>
     </g>
    </g>
    <g id="xtick_21">
     <g id="line2d_69">
      <path d="M 280.083621 674.34 
L 280.083621 381.84 
" clip-path="url(#pe2baea57d2)" style="fill: none; stroke: #ffffff; stroke-width: 0.8; stroke-linecap: round"/>
     </g>
     <g id="line2d_70"/>
     <g id="text_39">
      <!-- 8.0 -->
      <g style="fill: #262626" transform="translate(272.132058 685.438437) scale(0.1 -0.1)">
       <use xlink:href="#DejaVuSans-38"/>
       <use xlink:href="#DejaVuSans-2e" transform="translate(63.623047 0)"/>
       <use xlink:href="#DejaVuSans-30" transform="translate(95.410156 0)"/>
      </g>
     </g>
    </g>
    <g id="xtick_22">
     <g id="line2d_71">
      <path d="M 357.805723 674.34 
L 357.805723 381.84 
" clip-path="url(#pe2baea57d2)" style="fill: none; stroke: #ffffff; stroke-width: 0.8; stroke-linecap: round"/>
     </g>
     <g id="line2d_72"/>
     <g id="text_40">
      <!-- 8.5 -->
      <g style="fill: #262626" transform="translate(349.85416 685.438437) scale(0.1 -0.1)">
       <use xlink:href="#DejaVuSans-38"/>
       <use xlink:href="#DejaVuSans-2e" transform="translate(63.623047 0)"/>
       <use xlink:href="#DejaVuSans-35" transform="translate(95.410156 0)"/>
      </g>
     </g>
    </g>
    <g id="xtick_23">
     <g id="line2d_73">
      <path d="M 435.527825 674.34 
L 435.527825 381.84 
" clip-path="url(#pe2baea57d2)" style="fill: none; stroke: #ffffff; stroke-width: 0.8; stroke-linecap: round"/>
     </g>
     <g id="line2d_74"/>
     <g id="text_41">
      <!-- 9.0 -->
      <g style="fill: #262626" transform="translate(427.576262 685.438437) scale(0.1 -0.1)">
       <use xlink:href="#DejaVuSans-39"/>
       <use xlink:href="#DejaVuSans-2e" transform="translate(63.623047 0)"/>
       <use xlink:href="#DejaVuSans-30" transform="translate(95.410156 0)"/>
      </g>
     </g>
    </g>
    <g id="xtick_24">
     <g id="line2d_75">
      <path d="M 513.249927 674.34 
L 513.249927 381.84 
" clip-path="url(#pe2baea57d2)" style="fill: none; stroke: #ffffff; stroke-width: 0.8; stroke-linecap: round"/>
     </g>
     <g id="line2d_76"/>
     <g id="text_42">
      <!-- 9.5 -->
      <g style="fill: #262626" transform="translate(505.298365 685.438437) scale(0.1 -0.1)">
       <use xlink:href="#DejaVuSans-39"/>
       <use xlink:href="#DejaVuSans-2e" transform="translate(63.623047 0)"/>
       <use xlink:href="#DejaVuSans-35" transform="translate(95.410156 0)"/>
      </g>
     </g>
    </g>
    <g id="text_43">
     <!-- Satisfação -->
     <g style="fill: #262626" transform="translate(257.373438 699.135312) scale(0.1 -0.1)">
      <use xlink:href="#DejaVuSans-53"/>
      <use xlink:href="#DejaVuSans-61" transform="translate(63.476562 0)"/>
      <use xlink:href="#DejaVuSans-74" transform="translate(124.755859 0)"/>
      <use xlink:href="#DejaVuSans-69" transform="translate(163.964844 0)"/>
      <use xlink:href="#DejaVuSans-73" transform="translate(191.748047 0)"/>
      <use xlink:href="#DejaVuSans-66" transform="translate(243.847656 0)"/>
      <use xlink:href="#DejaVuSans-61" transform="translate(279.052734 0)"/>
      <use xlink:href="#DejaVuSans-e7" transform="translate(340.332031 0)"/>
      <use xlink:href="#DejaVuSans-e3" transform="translate(395.3125 0)"/>
      <use xlink:href="#DejaVuSans-6f" transform="translate(456.591797 0)"/>
     </g>
    </g>
   </g>
   <g id="matplotlib.axis_6">
    <g id="ytick_15">
     <g id="line2d_77">
      <path d="M 36.15 674.34 
L 530.375 674.34 
" clip-path="url(#pe2baea57d2)" style="fill: none; stroke: #ffffff; stroke-width: 0.8; stroke-linecap: round"/>
     </g>
     <g id="line2d_78"/>
     <g id="text_44">
      <!-- 0.0 -->
      <g style="fill: #262626" transform="translate(16.746875 678.139219) scale(0.1 -0.1)">
       <use xlink:href="#DejaVuSans-30"/>
       <use xlink:href="#DejaVuSans-2e" transform="translate(63.623047 0)"/>
       <use xlink:href="#DejaVuSans-30" transform="translate(95.410156 0)"/>
      </g>
     </g>
    </g>
    <g id="ytick_16">
     <g id="line2d_79">
      <path d="M 36.15 639.518571 
L 530.375 639.518571 
" clip-path="url(#pe2baea57d2)" style="fill: none; stroke: #ffffff; stroke-width: 0.8; stroke-linecap: round"/>
     </g>
     <g id="line2d_80"/>
     <g id="text_45">
      <!-- 0.5 -->
      <g style="fill: #262626" transform="translate(16.746875 643.31779) scale(0.1 -0.1)">
       <use xlink:href="#DejaVuSans-30"/>
       <use xlink:href="#DejaVuSans-2e" transform="translate(63.623047 0)"/>
       <use xlink:href="#DejaVuSans-35" transform="translate(95.410156 0)"/>
      </g>
     </g>
    </g>
    <g id="ytick_17">
     <g id="line2d_81">
      <path d="M 36.15 604.697143 
L 530.375 604.697143 
" clip-path="url(#pe2baea57d2)" style="fill: none; stroke: #ffffff; stroke-width: 0.8; stroke-linecap: round"/>
     </g>
     <g id="line2d_82"/>
     <g id="text_46">
      <!-- 1.0 -->
      <g style="fill: #262626" transform="translate(16.746875 608.496362) scale(0.1 -0.1)">
       <use xlink:href="#DejaVuSans-31"/>
       <use xlink:href="#DejaVuSans-2e" transform="translate(63.623047 0)"/>
       <use xlink:href="#DejaVuSans-30" transform="translate(95.410156 0)"/>
      </g>
     </g>
    </g>
    <g id="ytick_18">
     <g id="line2d_83">
      <path d="M 36.15 569.875714 
L 530.375 569.875714 
" clip-path="url(#pe2baea57d2)" style="fill: none; stroke: #ffffff; stroke-width: 0.8; stroke-linecap: round"/>
     </g>
     <g id="line2d_84"/>
     <g id="text_47">
      <!-- 1.5 -->
      <g style="fill: #262626" transform="translate(16.746875 573.674933) scale(0.1 -0.1)">
       <use xlink:href="#DejaVuSans-31"/>
       <use xlink:href="#DejaVuSans-2e" transform="translate(63.623047 0)"/>
       <use xlink:href="#DejaVuSans-35" transform="translate(95.410156 0)"/>
      </g>
     </g>
    </g>
    <g id="ytick_19">
     <g id="line2d_85">
      <path d="M 36.15 535.054286 
L 530.375 535.054286 
" clip-path="url(#pe2baea57d2)" style="fill: none; stroke: #ffffff; stroke-width: 0.8; stroke-linecap: round"/>
     </g>
     <g id="line2d_86"/>
     <g id="text_48">
      <!-- 2.0 -->
      <g style="fill: #262626" transform="translate(16.746875 538.853504) scale(0.1 -0.1)">
       <use xlink:href="#DejaVuSans-32"/>
       <use xlink:href="#DejaVuSans-2e" transform="translate(63.623047 0)"/>
       <use xlink:href="#DejaVuSans-30" transform="translate(95.410156 0)"/>
      </g>
     </g>
    </g>
    <g id="ytick_20">
     <g id="line2d_87">
      <path d="M 36.15 500.232857 
L 530.375 500.232857 
" clip-path="url(#pe2baea57d2)" style="fill: none; stroke: #ffffff; stroke-width: 0.8; stroke-linecap: round"/>
     </g>
     <g id="line2d_88"/>
     <g id="text_49">
      <!-- 2.5 -->
      <g style="fill: #262626" transform="translate(16.746875 504.032076) scale(0.1 -0.1)">
       <use xlink:href="#DejaVuSans-32"/>
       <use xlink:href="#DejaVuSans-2e" transform="translate(63.623047 0)"/>
       <use xlink:href="#DejaVuSans-35" transform="translate(95.410156 0)"/>
      </g>
     </g>
    </g>
    <g id="ytick_21">
     <g id="line2d_89">
      <path d="M 36.15 465.411429 
L 530.375 465.411429 
" clip-path="url(#pe2baea57d2)" style="fill: none; stroke: #ffffff; stroke-width: 0.8; stroke-linecap: round"/>
     </g>
     <g id="line2d_90"/>
     <g id="text_50">
      <!-- 3.0 -->
      <g style="fill: #262626" transform="translate(16.746875 469.210647) scale(0.1 -0.1)">
       <use xlink:href="#DejaVuSans-33"/>
       <use xlink:href="#DejaVuSans-2e" transform="translate(63.623047 0)"/>
       <use xlink:href="#DejaVuSans-30" transform="translate(95.410156 0)"/>
      </g>
     </g>
    </g>
    <g id="ytick_22">
     <g id="line2d_91">
      <path d="M 36.15 430.59 
L 530.375 430.59 
" clip-path="url(#pe2baea57d2)" style="fill: none; stroke: #ffffff; stroke-width: 0.8; stroke-linecap: round"/>
     </g>
     <g id="line2d_92"/>
     <g id="text_51">
      <!-- 3.5 -->
      <g style="fill: #262626" transform="translate(16.746875 434.389219) scale(0.1 -0.1)">
       <use xlink:href="#DejaVuSans-33"/>
       <use xlink:href="#DejaVuSans-2e" transform="translate(63.623047 0)"/>
       <use xlink:href="#DejaVuSans-35" transform="translate(95.410156 0)"/>
      </g>
     </g>
    </g>
    <g id="ytick_23">
     <g id="line2d_93">
      <path d="M 36.15 395.768571 
L 530.375 395.768571 
" clip-path="url(#pe2baea57d2)" style="fill: none; stroke: #ffffff; stroke-width: 0.8; stroke-linecap: round"/>
     </g>
     <g id="line2d_94"/>
     <g id="text_52">
      <!-- 4.0 -->
      <g style="fill: #262626" transform="translate(16.746875 399.56779) scale(0.1 -0.1)">
       <use xlink:href="#DejaVuSans-34"/>
       <use xlink:href="#DejaVuSans-2e" transform="translate(63.623047 0)"/>
       <use xlink:href="#DejaVuSans-30" transform="translate(95.410156 0)"/>
      </g>
     </g>
    </g>
   </g>
   <g id="patch_23">
    <path d="M 58.614773 674.34 
L 148.473864 674.34 
L 148.473864 395.768571 
L 58.614773 395.768571 
z
" clip-path="url(#pe2baea57d2)" style="fill: #ffa500; opacity: 0.7"/>
   </g>
   <g id="patch_24">
    <path d="M 148.473864 674.34 
L 238.332955 674.34 
L 238.332955 604.697143 
L 148.473864 604.697143 
z
" clip-path="url(#pe2baea57d2)" style="fill: #ffa500; opacity: 0.7"/>
   </g>
   <g id="patch_25">
    <path d="M 238.332955 674.34 
L 328.192045 674.34 
L 328.192045 465.411429 
L 238.332955 465.411429 
z
" clip-path="url(#pe2baea57d2)" style="fill: #ffa500; opacity: 0.7"/>
   </g>
   <g id="patch_26">
    <path d="M 328.192045 674.34 
L 418.051136 674.34 
L 418.051136 604.697143 
L 328.192045 604.697143 
z
" clip-path="url(#pe2baea57d2)" style="fill: #ffa500; opacity: 0.7"/>
   </g>
   <g id="patch_27">
    <path d="M 418.051136 674.34 
L 507.910227 674.34 
L 507.910227 604.697143 
L 418.051136 604.697143 
z
" clip-path="url(#pe2baea57d2)" style="fill: #ffa500; opacity: 0.7"/>
   </g>
   <g id="patch_28">
    <path d="M 36.15 674.34 
L 36.15 381.84 
" style="fill: none"/>
   </g>
   <g id="patch_29">
    <path d="M 530.375 674.34 
L 530.375 381.84 
" style="fill: none"/>
   </g>
   <g id="patch_30">
    <path d="M 36.15 674.34 
L 530.375 674.34 
" style="fill: none"/>
   </g>
   <g id="patch_31">
    <path d="M 36.15 381.84 
L 530.375 381.84 
" style="fill: none"/>
   </g>
   <g id="text_53">
    <!-- Distribuição de Satisfação do Cliente -->
    <g style="fill: #262626" transform="translate(172.70125 375.84) scale(0.12 -0.12)">
     <defs>
      <path id="DejaVuSans-44" d="M 1259 4147 
L 1259 519 
L 2022 519 
Q 2988 519 3436 956 
Q 3884 1394 3884 2338 
Q 3884 3275 3436 3711 
Q 2988 4147 2022 4147 
L 1259 4147 
z
M 628 4666 
L 1925 4666 
Q 3281 4666 3915 4102 
Q 4550 3538 4550 2338 
Q 4550 1131 3912 565 
Q 3275 0 1925 0 
L 628 0 
L 628 4666 
z
" transform="scale(0.015625)"/>
      <path id="DejaVuSans-62" d="M 3116 1747 
Q 3116 2381 2855 2742 
Q 2594 3103 2138 3103 
Q 1681 3103 1420 2742 
Q 1159 2381 1159 1747 
Q 1159 1113 1420 752 
Q 1681 391 2138 391 
Q 2594 391 2855 752 
Q 3116 1113 3116 1747 
z
M 1159 2969 
Q 1341 3281 1617 3432 
Q 1894 3584 2278 3584 
Q 2916 3584 3314 3078 
Q 3713 2572 3713 1747 
Q 3713 922 3314 415 
Q 2916 -91 2278 -91 
Q 1894 -91 1617 61 
Q 1341 213 1159 525 
L 1159 0 
L 581 0 
L 581 4863 
L 1159 4863 
L 1159 2969 
z
" transform="scale(0.015625)"/>
      <path id="DejaVuSans-43" d="M 4122 4306 
L 4122 3641 
Q 3803 3938 3442 4084 
Q 3081 4231 2675 4231 
Q 1875 4231 1450 3742 
Q 1025 3253 1025 2328 
Q 1025 1406 1450 917 
Q 1875 428 2675 428 
Q 3081 428 3442 575 
Q 3803 722 4122 1019 
L 4122 359 
Q 3791 134 3420 21 
Q 3050 -91 2638 -91 
Q 1578 -91 968 557 
Q 359 1206 359 2328 
Q 359 3453 968 4101 
Q 1578 4750 2638 4750 
Q 3056 4750 3426 4639 
Q 3797 4528 4122 4306 
z
" transform="scale(0.015625)"/>
     </defs>
     <use xlink:href="#DejaVuSans-44"/>
     <use xlink:href="#DejaVuSans-69" transform="translate(77.001953 0)"/>
     <use xlink:href="#DejaVuSans-73" transform="translate(104.785156 0)"/>
     <use xlink:href="#DejaVuSans-74" transform="translate(156.884766 0)"/>
     <use xlink:href="#DejaVuSans-72" transform="translate(196.09375 0)"/>
     <use xlink:href="#DejaVuSans-69" transform="translate(237.207031 0)"/>
     <use xlink:href="#DejaVuSans-62" transform="translate(264.990234 0)"/>
     <use xlink:href="#DejaVuSans-75" transform="translate(328.466797 0)"/>
     <use xlink:href="#DejaVuSans-69" transform="translate(391.845703 0)"/>
     <use xlink:href="#DejaVuSans-e7" transform="translate(419.628906 0)"/>
     <use xlink:href="#DejaVuSans-e3" transform="translate(474.609375 0)"/>
     <use xlink:href="#DejaVuSans-6f" transform="translate(535.888672 0)"/>
     <use xlink:href="#DejaVuSans-20" transform="translate(597.070312 0)"/>
     <use xlink:href="#DejaVuSans-64" transform="translate(628.857422 0)"/>
     <use xlink:href="#DejaVuSans-65" transform="translate(692.333984 0)"/>
     <use xlink:href="#DejaVuSans-20" transform="translate(753.857422 0)"/>
     <use xlink:href="#DejaVuSans-53" transform="translate(785.644531 0)"/>
     <use xlink:href="#DejaVuSans-61" transform="translate(849.121094 0)"/>
     <use xlink:href="#DejaVuSans-74" transform="translate(910.400391 0)"/>
     <use xlink:href="#DejaVuSans-69" transform="translate(949.609375 0)"/>
     <use xlink:href="#DejaVuSans-73" transform="translate(977.392578 0)"/>
     <use xlink:href="#DejaVuSans-66" transform="translate(1029.492188 0)"/>
     <use xlink:href="#DejaVuSans-61" transform="translate(1064.697266 0)"/>
     <use xlink:href="#DejaVuSans-e7" transform="translate(1125.976562 0)"/>
     <use xlink:href="#DejaVuSans-e3" transform="translate(1180.957031 0)"/>
     <use xlink:href="#DejaVuSans-6f" transform="translate(1242.236328 0)"/>
     <use xlink:href="#DejaVuSans-20" transform="translate(1303.417969 0)"/>
     <use xlink:href="#DejaVuSans-64" transform="translate(1335.205078 0)"/>
     <use xlink:href="#DejaVuSans-6f" transform="translate(1398.681641 0)"/>
     <use xlink:href="#DejaVuSans-20" transform="translate(1459.863281 0)"/>
     <use xlink:href="#DejaVuSans-43" transform="translate(1491.650391 0)"/>
     <use xlink:href="#DejaVuSans-6c" transform="translate(1561.474609 0)"/>
     <use xlink:href="#DejaVuSans-69" transform="translate(1589.257812 0)"/>
     <use xlink:href="#DejaVuSans-65" transform="translate(1617.041016 0)"/>
     <use xlink:href="#DejaVuSans-6e" transform="translate(1678.564453 0)"/>
     <use xlink:href="#DejaVuSans-74" transform="translate(1741.943359 0)"/>
     <use xlink:href="#DejaVuSans-65" transform="translate(1781.152344 0)"/>
    </g>
   </g>
  </g>
  <g id="axes_4">
   <g id="patch_32">
    <path d="M 571.535 674.34 
L 1065.76 674.34 
L 1065.76 381.84 
L 571.535 381.84 
z
" style="fill: #eaeaf2"/>
   </g>
   <g id="matplotlib.axis_7">
    <g id="xtick_25">
     <g id="line2d_95">
      <path d="M 593.999773 674.34 
L 593.999773 381.84 
" clip-path="url(#p4f9a86ebc3)" style="fill: none; stroke: #ffffff; stroke-width: 0.8; stroke-linecap: round"/>
     </g>
     <g id="line2d_96"/>
     <g id="text_54">
      <!-- Jan -->
      <g style="fill: #262626" transform="translate(590.500699 694.1134) rotate(-45) scale(0.1 -0.1)">
       <defs>
        <path id="DejaVuSans-4a" d="M 628 4666 
L 1259 4666 
L 1259 325 
Q 1259 -519 939 -900 
Q 619 -1281 -91 -1281 
L -331 -1281 
L -331 -750 
L -134 -750 
Q 284 -750 456 -515 
Q 628 -281 628 325 
L 628 4666 
z
" transform="scale(0.015625)"/>
       </defs>
       <use xlink:href="#DejaVuSans-4a"/>
       <use xlink:href="#DejaVuSans-61" transform="translate(29.492188 0)"/>
       <use xlink:href="#DejaVuSans-6e" transform="translate(90.771484 0)"/>
      </g>
     </g>
    </g>
    <g id="xtick_26">
     <g id="line2d_97">
      <path d="M 683.858864 674.34 
L 683.858864 381.84 
" clip-path="url(#p4f9a86ebc3)" style="fill: none; stroke: #ffffff; stroke-width: 0.8; stroke-linecap: round"/>
     </g>
     <g id="line2d_98"/>
     <g id="text_55">
      <!-- Fev -->
      <g style="fill: #262626" transform="translate(679.702954 695.427071) rotate(-45) scale(0.1 -0.1)">
       <defs>
        <path id="DejaVuSans-46" d="M 628 4666 
L 3309 4666 
L 3309 4134 
L 1259 4134 
L 1259 2759 
L 3109 2759 
L 3109 2228 
L 1259 2228 
L 1259 0 
L 628 0 
L 628 4666 
z
" transform="scale(0.015625)"/>
        <path id="DejaVuSans-76" d="M 191 3500 
L 800 3500 
L 1894 563 
L 2988 3500 
L 3597 3500 
L 2284 0 
L 1503 0 
L 191 3500 
z
" transform="scale(0.015625)"/>
       </defs>
       <use xlink:href="#DejaVuSans-46"/>
       <use xlink:href="#DejaVuSans-65" transform="translate(52.019531 0)"/>
       <use xlink:href="#DejaVuSans-76" transform="translate(113.542969 0)"/>
      </g>
     </g>
    </g>
    <g id="xtick_27">
     <g id="line2d_99">
      <path d="M 773.717955 674.34 
L 773.717955 381.84 
" clip-path="url(#p4f9a86ebc3)" style="fill: none; stroke: #ffffff; stroke-width: 0.8; stroke-linecap: round"/>
     </g>
     <g id="line2d_100"/>
     <g id="text_56">
      <!-- Mar -->
      <g style="fill: #262626" transform="translate(768.998569 696.554023) rotate(-45) scale(0.1 -0.1)">
       <use xlink:href="#DejaVuSans-4d"/>
       <use xlink:href="#DejaVuSans-61" transform="translate(86.279297 0)"/>
       <use xlink:href="#DejaVuSans-72" transform="translate(147.558594 0)"/>
      </g>
     </g>
    </g>
    <g id="xtick_28">
     <g id="line2d_101">
      <path d="M 863.577045 674.34 
L 863.577045 381.84 
" clip-path="url(#p4f9a86ebc3)" style="fill: none; stroke: #ffffff; stroke-width: 0.8; stroke-linecap: round"/>
     </g>
     <g id="line2d_102"/>
     <g id="text_57">
      <!-- Abr -->
      <g style="fill: #262626" transform="translate(859.411745 695.445854) rotate(-45) scale(0.1 -0.1)">
       <defs>
        <path id="DejaVuSans-41" d="M 2188 4044 
L 1331 1722 
L 3047 1722 
L 2188 4044 
z
M 1831 4666 
L 2547 4666 
L 4325 0 
L 3669 0 
L 3244 1197 
L 1141 1197 
L 716 0 
L 50 0 
L 1831 4666 
z
" transform="scale(0.015625)"/>
       </defs>
       <use xlink:href="#DejaVuSans-41"/>
       <use xlink:href="#DejaVuSans-62" transform="translate(68.408203 0)"/>
       <use xlink:href="#DejaVuSans-72" transform="translate(131.884766 0)"/>
      </g>
     </g>
    </g>
    <g id="xtick_29">
     <g id="line2d_103">
      <path d="M 953.436136 674.34 
L 953.436136 381.84 
" clip-path="url(#p4f9a86ebc3)" style="fill: none; stroke: #ffffff; stroke-width: 0.8; stroke-linecap: round"/>
     </g>
     <g id="line2d_104"/>
     <g id="text_58">
      <!-- Mai -->
      <g style="fill: #262626" transform="translate(949.187971 695.611582) rotate(-45) scale(0.1 -0.1)">
       <use xlink:href="#DejaVuSans-4d"/>
       <use xlink:href="#DejaVuSans-61" transform="translate(86.279297 0)"/>
       <use xlink:href="#DejaVuSans-69" transform="translate(147.558594 0)"/>
      </g>
     </g>
    </g>
    <g id="xtick_30">
     <g id="line2d_105">
      <path d="M 1043.295227 674.34 
L 1043.295227 381.84 
" clip-path="url(#p4f9a86ebc3)" style="fill: none; stroke: #ffffff; stroke-width: 0.8; stroke-linecap: round"/>
     </g>
     <g id="line2d_106"/>
     <g id="text_59">
      <!-- Jun -->
      <g style="fill: #262626" transform="translate(1039.722128 694.26145) rotate(-45) scale(0.1 -0.1)">
       <use xlink:href="#DejaVuSans-4a"/>
       <use xlink:href="#DejaVuSans-75" transform="translate(29.492188 0)"/>
       <use xlink:href="#DejaVuSans-6e" transform="translate(92.871094 0)"/>
      </g>
     </g>
    </g>
   </g>
   <g id="matplotlib.axis_8">
    <g id="ytick_24">
     <g id="line2d_107">
      <path d="M 571.535 666.459049 
L 1065.76 666.459049 
" clip-path="url(#p4f9a86ebc3)" style="fill: none; stroke: #ffffff; stroke-width: 0.8; stroke-linecap: round"/>
     </g>
     <g id="line2d_108"/>
     <g id="text_60">
      <!-- 0 -->
      <g style="fill: #262626" transform="translate(561.6725 670.258268) scale(0.1 -0.1)">
       <use xlink:href="#DejaVuSans-30"/>
      </g>
     </g>
    </g>
    <g id="ytick_25">
     <g id="line2d_109">
      <path d="M 571.535 616.148802 
L 1065.76 616.148802 
" clip-path="url(#p4f9a86ebc3)" style="fill: none; stroke: #ffffff; stroke-width: 0.8; stroke-linecap: round"/>
     </g>
     <g id="line2d_110"/>
     <g id="text_61">
      <!-- 500 -->
      <g style="fill: #262626" transform="translate(548.9475 619.948021) scale(0.1 -0.1)">
       <use xlink:href="#DejaVuSans-35"/>
       <use xlink:href="#DejaVuSans-30" transform="translate(63.623047 0)"/>
       <use xlink:href="#DejaVuSans-30" transform="translate(127.246094 0)"/>
      </g>
     </g>
    </g>
    <g id="ytick_26">
     <g id="line2d_111">
      <path d="M 571.535 565.838554 
L 1065.76 565.838554 
" clip-path="url(#p4f9a86ebc3)" style="fill: none; stroke: #ffffff; stroke-width: 0.8; stroke-linecap: round"/>
     </g>
     <g id="line2d_112"/>
     <g id="text_62">
      <!-- 1000 -->
      <g style="fill: #262626" transform="translate(542.585 569.637773) scale(0.1 -0.1)">
       <use xlink:href="#DejaVuSans-31"/>
       <use xlink:href="#DejaVuSans-30" transform="translate(63.623047 0)"/>
       <use xlink:href="#DejaVuSans-30" transform="translate(127.246094 0)"/>
       <use xlink:href="#DejaVuSans-30" transform="translate(190.869141 0)"/>
      </g>
     </g>
    </g>
    <g id="ytick_27">
     <g id="line2d_113">
      <path d="M 571.535 515.528307 
L 1065.76 515.528307 
" clip-path="url(#p4f9a86ebc3)" style="fill: none; stroke: #ffffff; stroke-width: 0.8; stroke-linecap: round"/>
     </g>
     <g id="line2d_114"/>
     <g id="text_63">
      <!-- 1500 -->
      <g style="fill: #262626" transform="translate(542.585 519.327526) scale(0.1 -0.1)">
       <use xlink:href="#DejaVuSans-31"/>
       <use xlink:href="#DejaVuSans-35" transform="translate(63.623047 0)"/>
       <use xlink:href="#DejaVuSans-30" transform="translate(127.246094 0)"/>
       <use xlink:href="#DejaVuSans-30" transform="translate(190.869141 0)"/>
      </g>
     </g>
    </g>
    <g id="ytick_28">
     <g id="line2d_115">
      <path d="M 571.535 465.218059 
L 1065.76 465.218059 
" clip-path="url(#p4f9a86ebc3)" style="fill: none; stroke: #ffffff; stroke-width: 0.8; stroke-linecap: round"/>
     </g>
     <g id="line2d_116"/>
     <g id="text_64">
      <!-- 2000 -->
      <g style="fill: #262626" transform="translate(542.585 469.017278) scale(0.1 -0.1)">
       <use xlink:href="#DejaVuSans-32"/>
       <use xlink:href="#DejaVuSans-30" transform="translate(63.623047 0)"/>
       <use xlink:href="#DejaVuSans-30" transform="translate(127.246094 0)"/>
       <use xlink:href="#DejaVuSans-30" transform="translate(190.869141 0)"/>
      </g>
     </g>
    </g>
    <g id="ytick_29">
     <g id="line2d_117">
      <path d="M 571.535 414.907812 
L 1065.76 414.907812 
" clip-path="url(#p4f9a86ebc3)" style="fill: none; stroke: #ffffff; stroke-width: 0.8; stroke-linecap: round"/>
     </g>
     <g id="line2d_118"/>
     <g id="text_65">
      <!-- 2500 -->
      <g style="fill: #262626" transform="translate(542.585 418.707031) scale(0.1 -0.1)">
       <use xlink:href="#DejaVuSans-32"/>
       <use xlink:href="#DejaVuSans-35" transform="translate(63.623047 0)"/>
       <use xlink:href="#DejaVuSans-30" transform="translate(127.246094 0)"/>
       <use xlink:href="#DejaVuSans-30" transform="translate(190.869141 0)"/>
      </g>
     </g>
    </g>
   </g>
   <g id="line2d_119">
    <path d="M 593.999773 661.044545 
L 683.858864 427.087899 
L 773.717955 395.135455 
L 863.577045 533.452313 
L 953.436136 637.215686 
L 1043.295227 658.185846 
" clip-path="url(#p4f9a86ebc3)" style="fill: none; stroke: #1f77b4; stroke-width: 2; stroke-linecap: round"/>
    <defs>
     <path id="m01798a9ae9" d="M 0 4 
C 1.060812 4 2.078319 3.578535 2.828427 2.828427 
C 3.578535 2.078319 4 1.060812 4 0 
C 4 -1.060812 3.578535 -2.078319 2.828427 -2.828427 
C 2.078319 -3.578535 1.060812 -4 0 -4 
C -1.060812 -4 -2.078319 -3.578535 -2.828427 -2.828427 
C -3.578535 -2.078319 -4 -1.060812 -4 0 
C -4 1.060812 -3.578535 2.078319 -2.828427 2.828427 
C -2.078319 3.578535 -1.060812 4 0 4 
z
" style="stroke: #1f77b4"/>
    </defs>
    <g clip-path="url(#p4f9a86ebc3)">
     <use xlink:href="#m01798a9ae9" x="593.999773" y="661.044545" style="fill: #1f77b4; stroke: #1f77b4"/>
     <use xlink:href="#m01798a9ae9" x="683.858864" y="427.087899" style="fill: #1f77b4; stroke: #1f77b4"/>
     <use xlink:href="#m01798a9ae9" x="773.717955" y="395.135455" style="fill: #1f77b4; stroke: #1f77b4"/>
     <use xlink:href="#m01798a9ae9" x="863.577045" y="533.452313" style="fill: #1f77b4; stroke: #1f77b4"/>
     <use xlink:href="#m01798a9ae9" x="953.436136" y="637.215686" style="fill: #1f77b4; stroke: #1f77b4"/>
     <use xlink:href="#m01798a9ae9" x="1043.295227" y="658.185846" style="fill: #1f77b4; stroke: #1f77b4"/>
    </g>
   </g>
   <g id="patch_33">
    <path d="M 571.535 674.34 
L 571.535 381.84 
" style="fill: none"/>
   </g>
   <g id="patch_34">
    <path d="M 1065.76 674.34 
L 1065.76 381.84 
" style="fill: none"/>
   </g>
   <g id="patch_35">
    <path d="M 571.535 674.34 
L 1065.76 674.34 
" style="fill: none"/>
   </g>
   <g id="patch_36">
    <path d="M 571.535 381.84 
L 1065.76 381.84 
" style="fill: none"/>
   </g>
   <g id="text_66">
    <!-- Vendas Mensais -->
    <g style="fill: #262626" transform="translate(770.729063 375.84) scale(0.12 -0.12)">
     <use xlink:href="#DejaVuSans-56"/>
     <use xlink:href="#DejaVuSans-65" transform="translate(60.658203 0)"/>
     <use xlink:href="#DejaVuSans-6e" transform="translate(122.181641 0)"/>
     <use xlink:href="#DejaVuSans-64" transform="translate(185.560547 0)"/>
     <use xlink:href="#DejaVuSans-61" transform="translate(249.037109 0)"/>
     <use xlink:href="#DejaVuSans-73" transform="translate(310.316406 0)"/>
     <use xlink:href="#DejaVuSans-20" transform="translate(362.416016 0)"/>
     <use xlink:href="#DejaVuSans-4d" transform="translate(394.203125 0)"/>
     <use xlink:href="#DejaVuSans-65" transform="translate(480.482422 0)"/>
     <use xlink:href="#DejaVuSans-6e" transform="translate(542.005859 0)"/>
     <use xlink:href="#DejaVuSans-73" transform="translate(605.384766 0)"/>
     <use xlink:href="#DejaVuSans-61" transform="translate(657.484375 0)"/>
     <use xlink:href="#DejaVuSans-69" transform="translate(718.763672 0)"/>
     <use xlink:href="#DejaVuSans-73" transform="translate(746.546875 0)"/>
    </g>
   </g>
  </g>
  <g id="text_67">
   <!-- Dashboard de Exemplo - Materiais de Construção -->
   <g style="fill: #262626" transform="translate(466.997109 11.089062) scale(0.05 -0.05)">
    <defs>
     <path id="DejaVuSans-Bold-44" d="M 1791 3756 
L 1791 909 
L 2222 909 
Q 2959 909 3348 1275 
Q 3738 1641 3738 2338 
Q 3738 3031 3350 3393 
Q 2963 3756 2222 3756 
L 1791 3756 
z
M 588 4666 
L 1856 4666 
Q 2919 4666 3439 4514 
Q 3959 4363 4331 4000 
Q 4659 3684 4818 3271 
Q 4978 2859 4978 2338 
Q 4978 1809 4818 1395 
Q 4659 981 4331 666 
Q 3956 303 3431 151 
Q 2906 0 1856 0 
L 588 0 
L 588 4666 
z
" transform="scale(0.015625)"/>
     <path id="DejaVuSans-Bold-61" d="M 2106 1575 
Q 1756 1575 1579 1456 
Q 1403 1338 1403 1106 
Q 1403 894 1545 773 
Q 1688 653 1941 653 
Q 2256 653 2472 879 
Q 2688 1106 2688 1447 
L 2688 1575 
L 2106 1575 
z
M 3816 1997 
L 3816 0 
L 2688 0 
L 2688 519 
Q 2463 200 2181 54 
Q 1900 -91 1497 -91 
Q 953 -91 614 226 
Q 275 544 275 1050 
Q 275 1666 698 1953 
Q 1122 2241 2028 2241 
L 2688 2241 
L 2688 2328 
Q 2688 2594 2478 2717 
Q 2269 2841 1825 2841 
Q 1466 2841 1156 2769 
Q 847 2697 581 2553 
L 581 3406 
Q 941 3494 1303 3539 
Q 1666 3584 2028 3584 
Q 2975 3584 3395 3211 
Q 3816 2838 3816 1997 
z
" transform="scale(0.015625)"/>
     <path id="DejaVuSans-Bold-73" d="M 3272 3391 
L 3272 2541 
Q 2913 2691 2578 2766 
Q 2244 2841 1947 2841 
Q 1628 2841 1473 2761 
Q 1319 2681 1319 2516 
Q 1319 2381 1436 2309 
Q 1553 2238 1856 2203 
L 2053 2175 
Q 2913 2066 3209 1816 
Q 3506 1566 3506 1031 
Q 3506 472 3093 190 
Q 2681 -91 1863 -91 
Q 1516 -91 1145 -36 
Q 775 19 384 128 
L 384 978 
Q 719 816 1070 734 
Q 1422 653 1784 653 
Q 2113 653 2278 743 
Q 2444 834 2444 1013 
Q 2444 1163 2330 1236 
Q 2216 1309 1875 1350 
L 1678 1375 
Q 931 1469 631 1722 
Q 331 1975 331 2491 
Q 331 3047 712 3315 
Q 1094 3584 1881 3584 
Q 2191 3584 2531 3537 
Q 2872 3491 3272 3391 
z
" transform="scale(0.015625)"/>
     <path id="DejaVuSans-Bold-68" d="M 4056 2131 
L 4056 0 
L 2931 0 
L 2931 347 
L 2931 1625 
Q 2931 2084 2911 2256 
Q 2891 2428 2841 2509 
Q 2775 2619 2662 2680 
Q 2550 2741 2406 2741 
Q 2056 2741 1856 2470 
Q 1656 2200 1656 1722 
L 1656 0 
L 538 0 
L 538 4863 
L 1656 4863 
L 1656 2988 
Q 1909 3294 2193 3439 
Q 2478 3584 2822 3584 
Q 3428 3584 3742 3212 
Q 4056 2841 4056 2131 
z
" transform="scale(0.015625)"/>
     <path id="DejaVuSans-Bold-62" d="M 2400 722 
Q 2759 722 2948 984 
Q 3138 1247 3138 1747 
Q 3138 2247 2948 2509 
Q 2759 2772 2400 2772 
Q 2041 2772 1848 2508 
Q 1656 2244 1656 1747 
Q 1656 1250 1848 986 
Q 2041 722 2400 722 
z
M 1656 2988 
Q 1888 3294 2169 3439 
Q 2450 3584 2816 3584 
Q 3463 3584 3878 3070 
Q 4294 2556 4294 1747 
Q 4294 938 3878 423 
Q 3463 -91 2816 -91 
Q 2450 -91 2169 54 
Q 1888 200 1656 506 
L 1656 0 
L 538 0 
L 538 4863 
L 1656 4863 
L 1656 2988 
z
" transform="scale(0.015625)"/>
     <path id="DejaVuSans-Bold-6f" d="M 2203 2784 
Q 1831 2784 1636 2517 
Q 1441 2250 1441 1747 
Q 1441 1244 1636 976 
Q 1831 709 2203 709 
Q 2569 709 2762 976 
Q 2956 1244 2956 1747 
Q 2956 2250 2762 2517 
Q 2569 2784 2203 2784 
z
M 2203 3584 
Q 3106 3584 3614 3096 
Q 4122 2609 4122 1747 
Q 4122 884 3614 396 
Q 3106 -91 2203 -91 
Q 1297 -91 786 396 
Q 275 884 275 1747 
Q 275 2609 786 3096 
Q 1297 3584 2203 3584 
z
" transform="scale(0.015625)"/>
     <path id="DejaVuSans-Bold-72" d="M 3138 2547 
Q 2991 2616 2845 2648 
Q 2700 2681 2553 2681 
Q 2122 2681 1889 2404 
Q 1656 2128 1656 1613 
L 1656 0 
L 538 0 
L 538 3500 
L 1656 3500 
L 1656 2925 
Q 1872 3269 2151 3426 
Q 2431 3584 2822 3584 
Q 2878 3584 2943 3579 
Q 3009 3575 3134 3559 
L 3138 2547 
z
" transform="scale(0.015625)"/>
     <path id="DejaVuSans-Bold-64" d="M 2919 2988 
L 2919 4863 
L 4044 4863 
L 4044 0 
L 2919 0 
L 2919 506 
Q 2688 197 2409 53 
Q 2131 -91 1766 -91 
Q 1119 -91 703 423 
Q 288 938 288 1747 
Q 288 2556 703 3070 
Q 1119 3584 1766 3584 
Q 2128 3584 2408 3439 
Q 2688 3294 2919 2988 
z
M 2181 722 
Q 2541 722 2730 984 
Q 2919 1247 2919 1747 
Q 2919 2247 2730 2509 
Q 2541 2772 2181 2772 
Q 1825 2772 1636 2509 
Q 1447 2247 1447 1747 
Q 1447 1247 1636 984 
Q 1825 722 2181 722 
z
" transform="scale(0.015625)"/>
     <path id="DejaVuSans-Bold-20" transform="scale(0.015625)"/>
     <path id="DejaVuSans-Bold-65" d="M 4031 1759 
L 4031 1441 
L 1416 1441 
Q 1456 1047 1700 850 
Q 1944 653 2381 653 
Q 2734 653 3104 758 
Q 3475 863 3866 1075 
L 3866 213 
Q 3469 63 3072 -14 
Q 2675 -91 2278 -91 
Q 1328 -91 801 392 
Q 275 875 275 1747 
Q 275 2603 792 3093 
Q 1309 3584 2216 3584 
Q 3041 3584 3536 3087 
Q 4031 2591 4031 1759 
z
M 2881 2131 
Q 2881 2450 2695 2645 
Q 2509 2841 2209 2841 
Q 1884 2841 1681 2658 
Q 1478 2475 1428 2131 
L 2881 2131 
z
" transform="scale(0.015625)"/>
     <path id="DejaVuSans-Bold-45" d="M 588 4666 
L 3834 4666 
L 3834 3756 
L 1791 3756 
L 1791 2888 
L 3713 2888 
L 3713 1978 
L 1791 1978 
L 1791 909 
L 3903 909 
L 3903 0 
L 588 0 
L 588 4666 
z
" transform="scale(0.015625)"/>
     <path id="DejaVuSans-Bold-78" d="M 1422 1791 
L 159 3500 
L 1344 3500 
L 2059 2463 
L 2784 3500 
L 3969 3500 
L 2706 1797 
L 4031 0 
L 2847 0 
L 2059 1106 
L 1281 0 
L 97 0 
L 1422 1791 
z
" transform="scale(0.015625)"/>
     <path id="DejaVuSans-Bold-6d" d="M 3781 2919 
Q 3994 3244 4286 3414 
Q 4578 3584 4928 3584 
Q 5531 3584 5847 3212 
Q 6163 2841 6163 2131 
L 6163 0 
L 5038 0 
L 5038 1825 
Q 5041 1866 5042 1909 
Q 5044 1953 5044 2034 
Q 5044 2406 4934 2573 
Q 4825 2741 4581 2741 
Q 4263 2741 4089 2478 
Q 3916 2216 3909 1719 
L 3909 0 
L 2784 0 
L 2784 1825 
Q 2784 2406 2684 2573 
Q 2584 2741 2328 2741 
Q 2006 2741 1831 2477 
Q 1656 2213 1656 1722 
L 1656 0 
L 531 0 
L 531 3500 
L 1656 3500 
L 1656 2988 
Q 1863 3284 2130 3434 
Q 2397 3584 2719 3584 
Q 3081 3584 3359 3409 
Q 3638 3234 3781 2919 
z
" transform="scale(0.015625)"/>
     <path id="DejaVuSans-Bold-70" d="M 1656 506 
L 1656 -1331 
L 538 -1331 
L 538 3500 
L 1656 3500 
L 1656 2988 
Q 1888 3294 2169 3439 
Q 2450 3584 2816 3584 
Q 3463 3584 3878 3070 
Q 4294 2556 4294 1747 
Q 4294 938 3878 423 
Q 3463 -91 2816 -91 
Q 2450 -91 2169 54 
Q 1888 200 1656 506 
z
M 2400 2772 
Q 2041 2772 1848 2508 
Q 1656 2244 1656 1747 
Q 1656 1250 1848 986 
Q 2041 722 2400 722 
Q 2759 722 2948 984 
Q 3138 1247 3138 1747 
Q 3138 2247 2948 2509 
Q 2759 2772 2400 2772 
z
" transform="scale(0.015625)"/>
     <path id="DejaVuSans-Bold-6c" d="M 538 4863 
L 1656 4863 
L 1656 0 
L 538 0 
L 538 4863 
z
" transform="scale(0.015625)"/>
     <path id="DejaVuSans-Bold-2d" d="M 347 2297 
L 2309 2297 
L 2309 1388 
L 347 1388 
L 347 2297 
z
" transform="scale(0.015625)"/>
     <path id="DejaVuSans-Bold-4d" d="M 588 4666 
L 2119 4666 
L 3181 2169 
L 4250 4666 
L 5778 4666 
L 5778 0 
L 4641 0 
L 4641 3413 
L 3566 897 
L 2803 897 
L 1728 3413 
L 1728 0 
L 588 0 
L 588 4666 
z
" transform="scale(0.015625)"/>
     <path id="DejaVuSans-Bold-74" d="M 1759 4494 
L 1759 3500 
L 2913 3500 
L 2913 2700 
L 1759 2700 
L 1759 1216 
Q 1759 972 1856 886 
Q 1953 800 2241 800 
L 2816 800 
L 2816 0 
L 1856 0 
Q 1194 0 917 276 
Q 641 553 641 1216 
L 641 2700 
L 84 2700 
L 84 3500 
L 641 3500 
L 641 4494 
L 1759 4494 
z
" transform="scale(0.015625)"/>
     <path id="DejaVuSans-Bold-69" d="M 538 3500 
L 1656 3500 
L 1656 0 
L 538 0 
L 538 3500 
z
M 538 4863 
L 1656 4863 
L 1656 3950 
L 538 3950 
L 538 4863 
z
" transform="scale(0.015625)"/>
     <path id="DejaVuSans-Bold-43" d="M 4288 256 
Q 3956 84 3597 -3 
Q 3238 -91 2847 -91 
Q 1681 -91 1000 561 
Q 319 1213 319 2328 
Q 319 3447 1000 4098 
Q 1681 4750 2847 4750 
Q 3238 4750 3597 4662 
Q 3956 4575 4288 4403 
L 4288 3438 
Q 3953 3666 3628 3772 
Q 3303 3878 2944 3878 
Q 2300 3878 1931 3465 
Q 1563 3053 1563 2328 
Q 1563 1606 1931 1193 
Q 2300 781 2944 781 
Q 3303 781 3628 887 
Q 3953 994 4288 1222 
L 4288 256 
z
" transform="scale(0.015625)"/>
     <path id="DejaVuSans-Bold-6e" d="M 4056 2131 
L 4056 0 
L 2931 0 
L 2931 347 
L 2931 1631 
Q 2931 2084 2911 2256 
Q 2891 2428 2841 2509 
Q 2775 2619 2662 2680 
Q 2550 2741 2406 2741 
Q 2056 2741 1856 2470 
Q 1656 2200 1656 1722 
L 1656 0 
L 538 0 
L 538 3500 
L 1656 3500 
L 1656 2988 
Q 1909 3294 2193 3439 
Q 2478 3584 2822 3584 
Q 3428 3584 3742 3212 
Q 4056 2841 4056 2131 
z
" transform="scale(0.015625)"/>
     <path id="DejaVuSans-Bold-75" d="M 500 1363 
L 500 3500 
L 1625 3500 
L 1625 3150 
Q 1625 2866 1622 2436 
Q 1619 2006 1619 1863 
Q 1619 1441 1641 1255 
Q 1663 1069 1716 984 
Q 1784 875 1895 815 
Q 2006 756 2150 756 
Q 2500 756 2700 1025 
Q 2900 1294 2900 1772 
L 2900 3500 
L 4019 3500 
L 4019 0 
L 2900 0 
L 2900 506 
Q 2647 200 2364 54 
Q 2081 -91 1741 -91 
Q 1134 -91 817 281 
Q 500 653 500 1363 
z
" transform="scale(0.015625)"/>
     <path id="DejaVuSans-Bold-e7" d="M 3366 3391 
L 3366 2478 
Q 3138 2634 2908 2709 
Q 2678 2784 2431 2784 
Q 1963 2784 1702 2511 
Q 1441 2238 1441 1747 
Q 1441 1256 1702 982 
Q 1963 709 2431 709 
Q 2694 709 2930 787 
Q 3166 866 3366 1019 
L 3366 103 
Q 3103 6 2833 -42 
Q 2563 -91 2291 -91 
Q 1344 -91 809 395 
Q 275 881 275 1747 
Q 275 2613 809 3098 
Q 1344 3584 2291 3584 
Q 2566 3584 2833 3536 
Q 3100 3488 3366 3391 
z
M 2457 0 
Q 2639 -194 2724 -359 
Q 2810 -525 2810 -672 
Q 2810 -969 2618 -1111 
Q 2426 -1253 2029 -1253 
Q 1879 -1253 1719 -1233 
Q 1560 -1213 1398 -1172 
L 1395 -697 
Q 1551 -747 1680 -770 
Q 1810 -794 1914 -794 
Q 2095 -794 2196 -722 
Q 2298 -650 2298 -525 
Q 2298 -444 2231 -316 
Q 2164 -188 2023 0 
L 2457 0 
z
" transform="scale(0.015625)"/>
     <path id="DejaVuSans-Bold-e3" d="M 2106 1575 
Q 1756 1575 1579 1456 
Q 1403 1338 1403 1106 
Q 1403 894 1545 773 
Q 1688 653 1941 653 
Q 2256 653 2472 879 
Q 2688 1106 2688 1447 
L 2688 1575 
L 2106 1575 
z
M 3816 1997 
L 3816 0 
L 2688 0 
L 2688 519 
Q 2463 200 2181 54 
Q 1900 -91 1497 -91 
Q 953 -91 614 226 
Q 275 544 275 1050 
Q 275 1666 698 1953 
Q 1122 2241 2028 2241 
L 2688 2241 
L 2688 2328 
Q 2688 2594 2478 2717 
Q 2269 2841 1825 2841 
Q 1466 2841 1156 2769 
Q 847 2697 581 2553 
L 581 3406 
Q 941 3494 1303 3539 
Q 1666 3584 2028 3584 
Q 2975 3584 3395 3211 
Q 3816 2838 3816 1997 
z
M 2190 4263 
L 2018 4378 
Q 2006 4384 1987 4397 
Q 1840 4494 1762 4494 
Q 1650 4494 1590 4397 
Q 1531 4300 1531 4116 
L 1531 4091 
L 1097 4091 
Q 1097 4516 1257 4747 
Q 1418 4978 1709 4978 
Q 1822 4978 1936 4936 
Q 2050 4894 2178 4800 
L 2368 4666 
Q 2437 4619 2495 4594 
Q 2553 4569 2600 4569 
Q 2712 4569 2774 4669 
Q 2837 4769 2837 4947 
L 2837 4972 
L 3272 4972 
Q 3272 4547 3111 4315 
Q 2950 4084 2659 4084 
Q 2547 4084 2442 4121 
Q 2337 4159 2190 4263 
z
" transform="scale(0.015625)"/>
    </defs>
    <use xlink:href="#DejaVuSans-Bold-44"/>
    <use xlink:href="#DejaVuSans-Bold-61" transform="translate(83.007812 0)"/>
    <use xlink:href="#DejaVuSans-Bold-73" transform="translate(150.488281 0)"/>
    <use xlink:href="#DejaVuSans-Bold-68" transform="translate(210.009766 0)"/>
    <use xlink:href="#DejaVuSans-Bold-62" transform="translate(281.201172 0)"/>
    <use xlink:href="#DejaVuSans-Bold-6f" transform="translate(352.783203 0)"/>
    <use xlink:href="#DejaVuSans-Bold-61" transform="translate(421.484375 0)"/>
    <use xlink:href="#DejaVuSans-Bold-72" transform="translate(488.964844 0)"/>
    <use xlink:href="#DejaVuSans-Bold-64" transform="translate(538.28125 0)"/>
    <use xlink:href="#DejaVuSans-Bold-20" transform="translate(609.863281 0)"/>
    <use xlink:href="#DejaVuSans-Bold-64" transform="translate(644.677734 0)"/>
    <use xlink:href="#DejaVuSans-Bold-65" transform="translate(716.259766 0)"/>
    <use xlink:href="#DejaVuSans-Bold-20" transform="translate(784.082031 0)"/>
    <use xlink:href="#DejaVuSans-Bold-45" transform="translate(818.896484 0)"/>
    <use xlink:href="#DejaVuSans-Bold-78" transform="translate(887.207031 0)"/>
    <use xlink:href="#DejaVuSans-Bold-65" transform="translate(951.708984 0)"/>
    <use xlink:href="#DejaVuSans-Bold-6d" transform="translate(1019.53125 0)"/>
    <use xlink:href="#DejaVuSans-Bold-70" transform="translate(1123.730469 0)"/>
    <use xlink:href="#DejaVuSans-Bold-6c" transform="translate(1195.3125 0)"/>
    <use xlink:href="#DejaVuSans-Bold-6f" transform="translate(1229.589844 0)"/>
    <use xlink:href="#DejaVuSans-Bold-20" transform="translate(1298.291016 0)"/>
    <use xlink:href="#DejaVuSans-Bold-2d" transform="translate(1333.105469 0)"/>
    <use xlink:href="#DejaVuSans-Bold-20" transform="translate(1374.609375 0)"/>
    <use xlink:href="#DejaVuSans-Bold-4d" transform="translate(1409.423828 0)"/>
    <use xlink:href="#DejaVuSans-Bold-61" transform="translate(1508.935547 0)"/>
    <use xlink:href="#DejaVuSans-Bold-74" transform="translate(1576.416016 0)"/>
    <use xlink:href="#DejaVuSans-Bold-65" transform="translate(1624.21875 0)"/>
    <use xlink:href="#DejaVuSans-Bold-72" transform="translate(1692.041016 0)"/>
    <use xlink:href="#DejaVuSans-Bold-69" transform="translate(1741.357422 0)"/>
    <use xlink:href="#DejaVuSans-Bold-61" transform="translate(1775.634766 0)"/>
    <use xlink:href="#DejaVuSans-Bold-69" transform="translate(1843.115234 0)"/>
    <use xlink:href="#DejaVuSans-Bold-73" transform="translate(1877.392578 0)"/>
    <use xlink:href="#DejaVuSans-Bold-20" transform="translate(1936.914062 0)"/>
    <use xlink:href="#DejaVuSans-Bold-64" transform="translate(1971.728516 0)"/>
    <use xlink:href="#DejaVuSans-Bold-65" transform="translate(2043.310547 0)"/>
    <use xlink:href="#DejaVuSans-Bold-20" transform="translate(2111.132812 0)"/>
    <use xlink:href="#DejaVuSans-Bold-43" transform="translate(2145.947266 0)"/>
    <use xlink:href="#DejaVuSans-Bold-6f" transform="translate(2219.335938 0)"/>
    <use xlink:href="#DejaVuSans-Bold-6e" transform="translate(2288.037109 0)"/>
    <use xlink:href="#DejaVuSans-Bold-73" transform="translate(2359.228516 0)"/>
    <use xlink:href="#DejaVuSans-Bold-74" transform="translate(2418.75 0)"/>
    <use xlink:href="#DejaVuSans-Bold-72" transform="translate(2466.552734 0)"/>
    <use xlink:href="#DejaVuSans-Bold-75" transform="translate(2515.869141 0)"/>
    <use xlink:href="#DejaVuSans-Bold-e7" transform="translate(2587.060547 0)"/>
    <use xlink:href="#DejaVuSans-Bold-e3" transform="translate(2646.337891 0)"/>
    <use xlink:href="#DejaVuSans-Bold-6f" transform="translate(2713.818359 0)"/>
   </g>
  </g>
 </g>
 <defs>
  <clipPath id="p2bfe40ef2f">
   <rect x="36.15" y="34.8" width="494.225" height="292.5"/>
  </clipPath>
  <clipPath id="pa81f8d9891">
   <rect x="571.535" y="34.8" width="494.225" height="292.5"/>
  </clipPath>
  <clipPath id="pe2baea57d2">
   <rect x="36.15" y="381.84" width="494.225" height="292.5"/>
  </clipPath>
  <clipPath id="p4f9a86ebc3">
   <rect x="571.535" y="381.84" width="494.225" height="292.5"/>
  </clipPath>
 </defs>
</svg>
